<svg aria-hidden="true" style="position: absolute; width: 0; height: 0; overflow: hidden;" version="1.1" xmlns="http://www.w3.org/2000/svg" xmlns:xlink="http://www.w3.org/1999/xlink">
<defs>
<symbol id="icon-Right-Up" viewBox="0 0 32 32">
<path d="M7.414 27.414l16.586-16.586v7.172c0 1.105 0.895 2 2 2s2-0.895 2-2v-12c0-0.809-0.487-1.538-1.235-1.848-0.248-0.103-0.508-0.151-0.765-0.151v-0.001h-12c-1.105 0-2 0.895-2 2s0.895 2 2 2h7.172l-16.586 16.586c-0.391 0.39-0.586 0.902-0.586 1.414s0.195 1.024 0.586 1.414c0.781 0.781 2.047 0.781 2.828 0z"></path>
</symbol>
<symbol id="icon-Cardiology" viewBox="0 0 33 32">
<path fill="#df7e7e" style="fill: var(--color1, #df7e7e)" d="M27.039 21.224v2.012c0 0.371 0.3 0.673 0.673 0.673h2.012v1.65h-2.012c-0.371 0-0.673 0.3-0.673 0.673v2.012h-1.65v-2.012c0-0.371-0.3-0.673-0.673-0.673h-2.012v-1.65h2.012c0.371 0 0.673-0.3 0.673-0.673v-2.012h1.65zM24.718 19.878h2.995c0.372 0 0.673 0.302 0.673 0.673v2.012h2.012c0.372 0 0.673 0.302 0.673 0.673v2.995c0 0.372-0.302 0.673-0.673 0.673h-2.012v2.012c0 0.372-0.302 0.673-0.673 0.673h-2.995c-0.372 0-0.673-0.302-0.673-0.673v-2.012h-2.012c-0.372 0-0.673-0.302-0.673-0.673v-2.995c0-0.372 0.302-0.673 0.673-0.673h2.012v-2.012c0-0.372 0.302-0.673 0.673-0.673zM31.067 19.883c1.242 1.242 2.009 2.957 2.009 4.852 0 1.894-0.767 3.61-2.009 4.852s-2.957 2.009-4.852 2.009c-1.894 0-3.61-0.767-4.852-2.009s-2.009-2.957-2.009-4.852c0-1.894 0.767-3.61 2.009-4.852s2.957-2.009 4.852-2.009c1.894 0 3.61 0.767 4.852 2.009zM25.136 16.598c-1.835 0.241-3.478 1.088-4.724 2.334-1.121 1.121-1.92 2.566-2.244 4.181-0.668 0.582-1.319 1.15-1.968 1.733-0.496 0.446-0.962 0.874-1.388 1.284-0.94-0.897-2.11-1.906-3.376-2.998-1.769-1.526-3.73-3.218-5.548-5.036-4.862-4.864-8.515-10.507-3.451-15.57 1.628-1.628 3.757-2.469 5.899-2.522 2.157-0.053 4.331 0.688 6.027 2.226 0.259 0.234 0.648 0.229 0.901-0.001 1.699-1.539 3.869-2.277 6.021-2.225 2.149 0.053 4.28 0.897 5.904 2.521 2.323 2.323 2.85 4.699 2.284 7.040-0.573 2.372-2.248 4.753-4.338 7.031l0.002 0.003zM5.944 13.147h3.432c0.256 0 0.48-0.144 0.594-0.355l0.842-1.391 2.091 4.42c0.158 0.335 0.559 0.479 0.894 0.321 0.217-0.102 0.354-0.305 0.379-0.526l1.059-5.821 1.171 2.928c0.105 0.262 0.356 0.421 0.622 0.421v0.001h6.956c0.372 0 0.673-0.302 0.673-0.673 0-0.372-0.302-0.673-0.673-0.673h-6.502l-1.867-4.668h-0.001c-0.083-0.207-0.267-0.368-0.505-0.41-0.364-0.066-0.713 0.177-0.778 0.542l-1.11 6.097-1.72-3.636c-0.053-0.128-0.147-0.24-0.273-0.316-0.318-0.191-0.732-0.089-0.923 0.229l-1.309 2.165h-3.053c-0.372 0-0.673 0.302-0.673 0.673 0 0.372 0.302 0.673 0.673 0.673l-0.001 0.002z"></path>
</symbol>
<symbol id="icon-Orthopedics" viewBox="0 0 34 32">
<path fill="#df7e7e" style="fill: var(--color1, #df7e7e)" d="M29.968 15.593c-0.651-1.128-1.702-1.935-2.962-2.273-0.419-0.112-0.846-0.168-1.269-0.168-0.846 0-1.68 0.221-2.432 0.656-1.129 0.651-1.936 1.702-2.272 2.96-0.338 1.258-0.163 2.572 0.487 3.699 1.344 2.329 4.333 3.129 6.661 1.786 1.129-0.651 1.936-1.702 2.273-2.962 0.339-1.258 0.167-2.573-0.485-3.701zM27.814 18.509h-1.182c-0.227 0-0.411 0.185-0.411 0.41v1.182h-0.952v-1.182c0-0.227-0.185-0.41-0.411-0.41h-1.183l-0.002-0.953h1.183c0.227 0 0.411-0.184 0.411-0.41v-1.184h0.952v1.184c0 0.227 0.185 0.41 0.411 0.41h1.182l0.002 0.953zM10.99 26.95h7.664v3.268h-7.664v-3.268zM10.99 23.536h7.664v2.591h-7.664v-2.591zM18.654 21.581v1.132h-7.664v-1.132c0-0.668 0.544-1.21 1.213-1.21h5.239c0.669 0 1.213 0.543 1.213 1.21zM25.023 23.683c-0.382 0.513-0.804 0.93-1.26 1.242-0.866 0.593-1.895 0.652-2.824 0.163-0.928-0.49-1.461-1.374-1.461-2.424v-1.095c-0.003-0.559-0.231-1.064-0.6-1.43s-0.876-0.593-1.435-0.593l-5.24 0.002c-1.122 0-2.036 0.912-2.036 2.033v1.085c0 1.051-0.533 1.935-1.46 2.424-0.929 0.49-1.96 0.43-2.824-0.163-1.571-1.077-2.726-3.406-2.944-5.937-0.206-2.393 0.469-4.539 1.854-5.889 0.448-0.438 0.908-0.781 1.369-1.021 0.881-0.461 1.835-0.432 2.686 0.084s1.319 1.348 1.319 2.343v0.422c0 1.122 0.914 2.036 2.036 2.036h5.239c1.119 0 2.030-0.907 2.036-2.025v-0.432c0-0.995 0.468-1.827 1.319-2.343 0.853-0.515 1.808-0.545 2.69-0.084 0.241 0.126 0.483 0.281 0.721 0.461-0.453 0.128-0.894 0.313-1.312 0.554-1.319 0.762-2.262 1.99-2.656 3.462-0.393 1.47-0.192 3.006 0.57 4.324 0.923 1.599 2.509 2.583 4.214 2.802zM10.99 13.634h7.664v1.294c0 0.669-0.544 1.213-1.213 1.213l-5.239-0.001c-0.669 0-1.213-0.544-1.213-1.213l0-1.293zM18.654 12.811h-7.664v-2.591h7.664v2.591zM7.921 3.075v-1.292h4.513v1.629c0 1.317 1.071 2.388 2.388 2.388s2.388-1.071 2.388-2.388l0.001-1.629h4.513v1.292c0 1.312-0.652 2.545-1.744 3.295-0.855 0.585-1.325 1.477-1.325 2.513v0.515l-7.665-0.001v-0.515c0-1.036-0.469-1.928-1.323-2.513-1.094-0.749-1.747-1.98-1.747-3.294l-0 0z"></path>
</symbol>
<symbol id="icon-Neurology" viewBox="0 0 32 32">
<path fill="#df7e7e" style="fill: var(--color1, #df7e7e)" d="M6.118 9.837c0.229-0.111 0.505-0.014 0.615 0.215 0.111 0.229 0.014 0.505-0.215 0.615-1.023 0.495-1.512 1.684-1.144 2.751 0.122 0.353 0.329 0.663 0.595 0.91 0.141 0.132 0.3 0.244 0.471 0.336 0.099-0.429 0.259-0.862 0.484-1.288 0.119-0.225 0.397-0.312 0.623-0.193 0.225 0.119 0.312 0.397 0.193 0.623-0.532 1.005-0.699 2.184-0.186 3.24 0.414 0.855 1.182 1.426 2.063 1.733-0.14-0.952 0.133-1.922 0.749-2.664 0.433-0.519 1.019-0.911 1.7-1.1 0.245-0.067 0.499 0.077 0.567 0.321 0.067 0.245-0.077 0.499-0.321 0.567-0.496 0.138-0.923 0.422-1.238 0.8s-0.516 0.851-0.563 1.363c-0.045 0.514 0.070 1.014 0.314 1.442s0.614 0.784 1.077 1.006c0.464 0.223 0.974 0.292 1.46 0.214 0.425-0.067 0.833-0.245 1.178-0.527v-2.23c-0.393 0.401-0.901 0.695-1.512 0.799-0.251 0.042-0.489-0.126-0.533-0.377-0.042-0.251 0.126-0.489 0.377-0.533 0.492-0.084 0.888-0.355 1.168-0.715 0.325-0.415 0.499-0.948 0.499-1.46v-8.633c0-0.255 0.207-0.462 0.462-0.462s0.462 0.207 0.462 0.462v13.149c0.345 0.282 0.753 0.46 1.178 0.527 0.486 0.077 0.996 0.010 1.46-0.214 0.463-0.223 0.833-0.578 1.077-1.006 0.244-0.429 0.359-0.929 0.314-1.442-0.045-0.512-0.248-0.985-0.563-1.363-0.314-0.378-0.741-0.662-1.238-0.8-0.245-0.067-0.389-0.322-0.321-0.567 0.067-0.245 0.322-0.389 0.567-0.321 0.681 0.189 1.267 0.581 1.7 1.1 0.432 0.519 0.71 1.167 0.771 1.871 0.023 0.268 0.015 0.534-0.022 0.792 0.211-0.074 0.411-0.16 0.596-0.259 0.437-0.23 0.799-0.526 1.078-0.867-0.304-0.612-0.482-1.275-0.482-1.979v-4.641c0-0.199 0.112-0.37 0.294-0.448l3.318-1.433c0.011-0.403-0.034-0.808-0.137-1.196-0.222-0.841-0.708-1.599-1.448-2.071-0.095 0.523-0.279 1.030-0.527 1.5-0.119 0.225-0.397 0.312-0.623 0.193-0.225-0.119-0.312-0.397-0.193-0.623 0.216-0.41 0.36-0.819 0.434-1.218 0.123-0.667 0.048-1.411-0.247-2.021-0.292-0.603-0.788-1.115-1.467-1.474-0.185-0.099-0.384-0.185-0.596-0.259 0.038 0.259 0.047 0.523 0.022 0.792-0.063 0.704-0.34 1.352-0.771 1.871-0.433 0.519-1.019 0.911-1.7 1.1-0.245 0.067-0.499-0.077-0.567-0.321-0.067-0.245 0.077-0.499 0.321-0.567 0.496-0.138 0.923-0.422 1.238-0.8s0.516-0.851 0.563-1.363c0.045-0.514-0.070-1.014-0.314-1.442-0.508-0.895-1.521-1.381-2.537-1.221-0.486 0.077-0.949 0.299-1.322 0.655-0.177 0.168-0.456 0.17-0.636 0-0.373-0.356-0.837-0.578-1.322-0.655-1.016-0.162-2.027 0.326-2.537 1.221-0.508 0.896-0.411 2.014 0.248 2.805 0.314 0.378 0.741 0.662 1.238 0.8 0.245 0.067 0.389 0.322 0.321 0.567-0.067 0.245-0.322 0.389-0.567 0.321-0.681-0.189-1.267-0.581-1.7-1.1-0.618-0.743-0.889-1.711-0.749-2.664-0.881 0.307-1.648 0.878-2.063 1.733-0.503 1.038-0.338 2.247 0.186 3.24 0.119 0.225 0.033 0.504-0.193 0.623-0.225 0.119-0.504 0.033-0.623-0.193-0.249-0.471-0.433-0.975-0.527-1.5-0.741 0.473-1.226 1.23-1.448 2.071-0.227 0.863-0.177 1.816 0.17 2.641 0.281-0.319 0.616-0.575 1-0.759l0.003 0.001zM18.697 8.248c0.197-0.162 0.486-0.133 0.649 0.066 0.163 0.197 0.13 0.489-0.067 0.651-0.426 0.348-0.671 0.864-0.671 1.416 0 0.551 0.245 1.069 0.671 1.416 0.197 0.162 0.229 0.452 0.067 0.651-0.092 0.111-0.226 0.17-0.356 0.17-0.105 0-0.207-0.034-0.293-0.104-0.642-0.525-1.012-1.303-1.012-2.133s0.37-1.607 1.012-2.132v-0.001zM12.492 2.369c0.045-0.252 0.284-0.421 0.534-0.377 0.56 0.095 1.027 0.347 1.4 0.69 0.84-0.684 1.91-0.892 2.867-0.537 0.238 0.089 0.359 0.355 0.27 0.595-0.086 0.238-0.353 0.362-0.592 0.273-0.753-0.279-1.479-0.003-1.97 0.393 0.303 0.522 0.462 1.118 0.462 1.673 0 0.255-0.207 0.462-0.464 0.462-0.255 0-0.462-0.207-0.462-0.462 0-0.916-0.582-1.99-1.667-2.174-0.252-0.042-0.421-0.282-0.378-0.534v-0.001zM8.571 9.559c0.067-0.247 0.321-0.393 0.566-0.327 0.885 0.237 2.074-0.049 2.533-1.048 0.105-0.231 0.378-0.333 0.611-0.227 0.232 0.107 0.334 0.381 0.229 0.614-0.238 0.515-0.601 0.903-1.027 1.173 0.442 0.988 0.366 2.077-0.223 2.908-0.092 0.127-0.236 0.194-0.378 0.194-0.092 0-0.185-0.027-0.267-0.085-0.21-0.148-0.258-0.436-0.111-0.644 0.468-0.656 0.388-1.429 0.13-2.004-0.582 0.159-1.2 0.156-1.734 0.012-0.248-0.066-0.392-0.319-0.327-0.566zM27.422 9.195l-4.92 2.125v4.353c0 2.207 2.374 4.24 4.92 5.097 2.547-0.858 4.92-2.89 4.92-5.097v-4.353l-4.92-2.125zM30.213 15.67c0 0.167-0.136 0.303-0.303 0.303h-1.5v1.5c0 0.167-0.136 0.303-0.303 0.303h-1.373c-0.167 0-0.303-0.136-0.303-0.303v-1.5h-1.5c-0.167 0-0.303-0.136-0.303-0.303v-1.373c0-0.167 0.136-0.303 0.303-0.303h1.5v-1.5c0-0.167 0.136-0.303 0.303-0.303h1.373c0.167 0 0.303 0.136 0.303 0.303v1.5h1.5c0.167 0 0.303 0.136 0.303 0.303v1.373zM29.398 24.937c-0.671 0.882-6.86 4.29-9.073 5.463-1.795 0.896-3.46 1.193-5.415 1.038-3.242-0.258-7.044-1.225-12.138 0.431l-2.773-7.162c2.548-0.918 3.095-1 6.090-2.351 3.526-1.59 5.755 2.089 12.177 2.089 0.375 0 0.677 0.086 0.911 0.233 0.719 0.592 0.341 1.829-0.6 2.178-0.462 0.171-1.082 0.252-1.756 0.268-1.737 0.042-3.738-0.367-4.532-0.779-0.244-0.127-0.545-0.032-0.671 0.212-0.127 0.244-0.032 0.545 0.212 0.671 0.9 0.468 3.121 0.934 5.015 0.888 1.462-0.036 2.771-0.382 3.296-1.264 0.178-0.299 0.268-0.593 0.282-0.866 2.419-0.926 5.581-2.462 6.949-3.252 1.741-1.005 3.24 0.607 2.026 2.201l-0.002 0z"></path>
</symbol>
<symbol id="icon-Eye" viewBox="0 0 37 32">
<path fill="#df7e7e" style="fill: var(--color1, #df7e7e)" d="M18.394 0.001c-1.6 0.017-3.173 0.42-4.586 1.173-1.375 0.891-2.794 1.709-4.252 2.456-1.484 0.898-3.287 1.102-4.936 0.556 1.642 1.156 3.792 1.302 5.574 0.377 2.086-0.909 4.186-1.789 6.297-2.639 1.039-0.311 2.138-0.37 3.202-0.169 0.086 0.025 0.173 0.042 0.262 0.050 2.506 0.228 4.783 1.556 6.216 3.625 0.327 0.522 0.236 1.2-0.216 1.619-0.452 0.417-1.134 0.455-1.63 0.091 0.422 0.548 1.161 0.744 1.8 0.475 0.613-0.33 1.034-0.927 1.142-1.614 0.106-0.688-0.116-1.386-0.598-1.886-0.045-0.047-0.087-0.097-0.125-0.15-1.717-2.408-4.466-3.869-7.422-3.945-0.242-0.016-0.484-0.022-0.727-0.019l-0.001 0zM18.353 2.382c-1.186-0.005-2.33 0.433-3.209 1.228 0.286-0.042 0.567 0.1 0.702 0.355 0.134 0.256 0.092 0.569-0.103 0.78-0.197 0.213-0.505 0.277-0.77 0.162-0.264-0.116-0.428-0.384-0.408-0.672-1.35 1.75-1.317 4.2 0.081 5.912 1.397 1.714 3.791 2.239 5.776 1.267 1.986-0.97 3.042-3.181 2.548-5.336-0.494-2.156-2.406-3.687-4.617-3.697zM36.039 5.223c-0.353 0.006-0.67 0.217-0.816 0.539-0.144 0.323-0.091 0.7 0.139 0.967-0.705 0.037-1.333 0.464-1.628 1.106-0.297 0.642-0.212 1.395 0.217 1.956-1.52 0.728-2.425 2.328-2.266 4.006l-1.717 1.52 0.914-2.27c0.156-0.389 0.031-0.834-0.306-1.084-0.336-0.252-0.798-0.244-1.127 0.019-1.238 0.609-1.977 1.912-1.867 3.287l-5.847 7.38c-0.38 0.478-0.57 1.077-0.538 1.686l0.377 7.072h7.359l-1.195-5.738c-0.172-0.83 0.087-1.691 0.691-2.286l5.924-5.861 1.356-2.891c0.727-3.009 1.041-6.102 0.938-9.195-0.169-0.142-0.386-0.219-0.608-0.214zM18.361 5.235c1.039 0.016 1.869 0.867 1.861 1.905 0.009 0.508-0.184 0.997-0.541 1.359-0.355 0.363-0.841 0.567-1.348 0.567s-0.994-0.205-1.348-0.567c-0.356-0.363-0.55-0.852-0.541-1.359-0.008-1.019 0.794-1.861 1.813-1.903 0.034-0.002 0.070-0.002 0.105-0.002zM0.566 5.348c-0.202 0.009-0.394 0.086-0.547 0.217-0.103 3.092 0.211 6.184 0.938 9.192l1.358 2.891 5.922 5.861c0.603 0.595 0.862 1.456 0.691 2.286l-1.195 5.738h7.359l0.378-7.072c0.033-0.608-0.158-1.208-0.538-1.686l-5.848-7.378c0.111-1.375-0.63-2.68-1.867-3.289-0.328-0.259-0.789-0.267-1.125-0.017s-0.461 0.695-0.306 1.083l0.914 2.27-1.719-1.519c0.159-1.68-0.745-3.28-2.266-4.008 0.43-0.561 0.514-1.314 0.217-1.956-0.295-0.642-0.923-1.067-1.63-1.105 0.239-0.278 0.289-0.669 0.128-0.997s-0.5-0.528-0.864-0.51zM11.104 6.546c-0.192 0.003-0.384 0.044-0.563 0.119-0.612 0.33-1.034 0.927-1.142 1.614-0.106 0.688 0.116 1.384 0.598 1.884 0.045 0.048 0.088 0.1 0.125 0.153 1.719 2.406 4.467 3.867 7.422 3.944 1.844 0.116 3.683-0.284 5.312-1.153 1.375-0.891 2.795-1.711 4.253-2.456 1.484-0.897 3.288-1.102 4.933-0.558-1.641-1.155-3.789-1.298-5.57-0.375-2.086 0.909-4.186 1.787-6.297 2.636-1.039 0.314-2.136 0.372-3.202 0.172-0.086-0.027-0.173-0.042-0.262-0.052-2.506-0.227-4.783-1.555-6.216-3.623-0.328-0.522-0.239-1.203 0.213-1.622s1.137-0.456 1.633-0.089c-0.295-0.383-0.753-0.603-1.238-0.594z"></path>
</symbol>
<symbol id="icon-Dentist" viewBox="0 0 33 32">
<path fill="#df7e7e" style="fill: var(--color1, #df7e7e)" d="M31.487 1.611c-0.9-0.9-2.084-1.46-3.351-1.584s-2.537 0.194-3.595 0.901-1.838 1.759-2.208 2.977c-0.369 1.218-0.305 2.526 0.182 3.702s1.367 2.146 2.489 2.746 2.418 0.792 3.666 0.544c1.248-0.248 2.372-0.922 3.179-1.905s1.249-2.217 1.249-3.49c0.001-0.723-0.141-1.438-0.418-2.106s-0.682-1.274-1.194-1.784zM12.484 3.403c0.538-0.344 1.111-0.629 1.709-0.85 1.703-0.65 3.579-0.683 5.303-0.092 0.756 0.264 1.465 0.645 2.103 1.129-0.438 1.38-0.388 2.868 0.142 4.215s1.507 2.471 2.767 3.182c-0.028 0.163-0.062 0.326-0.101 0.488-0.060 0.249-0.134 0.497-0.221 0.746-0.316 0.784-0.775 1.504-1.352 2.122-0.73 0.816-1.523 1.573-2.372 2.265-0.256 0.208-0.462 0.471-0.601 0.771s-0.208 0.626-0.202 0.956c0.015 2.898-0.454 5.779-1.387 8.523-0.674 1.892-1.605 3.575-2.827 4.731 0.004-0.282 0.006-0.516 0.006-0.7 0-3.176-0.007-6.085-0.36-8.21-0.382-2.303-1.182-3.715-2.802-3.638-2.593-0.018-3.041 3.326-3.112 7.979-0.014 0.95-0.013 1.958-0.012 3.004 0 0.455 0-0.892 0 0.864 0 0.184 0.002 0.418 0.006 0.7-1.221-1.155-2.153-2.839-2.827-4.731-0.933-2.744-1.402-5.625-1.387-8.523 0.006-0.33-0.063-0.657-0.202-0.956s-0.345-0.563-0.601-0.771c-0.849-0.692-1.642-1.449-2.372-2.264-0.577-0.618-1.035-1.338-1.352-2.122-0.672-1.917-0.555-4.022 0.325-5.853s2.451-3.237 4.368-3.909c1.132-0.401 2.343-0.526 3.534-0.365 1.014 0.142 1.991 0.481 2.875 0.998-0.95 0.694-1.77 1.551-2.421 2.531-0.029 0.043-0.049 0.092-0.059 0.143s-0.010 0.104 0.001 0.155 0.031 0.099 0.060 0.143c0.029 0.043 0.066 0.080 0.11 0.109s0.092 0.049 0.143 0.059c0.051 0.010 0.104 0.010 0.155-0.001s0.099-0.031 0.143-0.060c0.043-0.029 0.080-0.066 0.109-0.11 0.702-1.056 1.615-1.955 2.682-2.641 0.010-0.005 0.020-0.010 0.029-0.016zM28.547 2.625v1.928h1.928v1.898h-1.928v1.928h-1.898v-1.929h-1.928v-1.898h1.928v-1.928l1.898 0.001z"></path>
</symbol>
</defs>
</svg>
