<svg aria-hidden="true" style="position: absolute; width: 0; height: 0; overflow: hidden;" version="1.1" xmlns="http://www.w3.org/2000/svg" xmlns:xlink="http://www.w3.org/1999/xlink">
<defs>
<symbol id="icon-medical-logo" viewBox="0 0 32 32">
<path fill="#fff" style="fill: var(--color1, #fff)" d="M12.593 24.13c-0.044 0-0.044 0-0.044 0-0.443 0-0.798-0.31-0.887-0.709l-3.148-12.105-0.976 4.478c-0.133 0.443-0.488 0.754-0.976 0.754h-5.587c-0.532 0-0.976-0.443-0.976-0.976s0.443-0.975 0.976-0.975h4.833l1.685-7.582c0.089-0.443 0.443-0.754 0.887-0.754s0.842 0.31 0.976 0.709l3.281 12.681 1.641-5.188c0.133-0.399 0.488-0.665 0.931-0.665h3.547c0.399 0 0.754 0.222 0.887 0.576l0.754 1.818 1.64-8.114c0.089-0.443 0.443-0.754 0.887-0.798 0.443 0 0.843 0.31 0.976 0.754l1.463 5.498h4.966c0.532 0 0.975 0.443 0.975 0.976s-0.443 0.931-0.975 0.931h-5.72c-0.443 0-0.842-0.266-0.931-0.709l-0.576-2.173-1.419 7.094c-0.089 0.399-0.443 0.71-0.842 0.754-0.443 0.044-0.843-0.177-0.976-0.576l-1.729-4.124h-2.217l-2.439 7.76c-0.133 0.399-0.488 0.665-0.887 0.665z"></path>
</symbol>
<symbol id="icon-burger" viewBox="0 0 43 32">
<path fill="none" stroke="#67666b" style="stroke: var(--color2, #67666b)" stroke-linejoin="round" stroke-linecap="round" stroke-miterlimit="4" stroke-width="5.3333" d="M2.667 29.333h35.555"></path>
<path fill="none" stroke="#67666b" style="stroke: var(--color2, #67666b)" stroke-linejoin="round" stroke-linecap="round" stroke-miterlimit="4" stroke-width="5.3333" d="M2.667 16h35.555"></path>
<path fill="none" stroke="#67666b" style="stroke: var(--color2, #67666b)" stroke-linejoin="round" stroke-linecap="round" stroke-miterlimit="4" stroke-width="5.3333" d="M2.667 2.667h35.555"></path>
</symbol>
<symbol id="icon-Logo" viewBox="0 0 32 32">
<path fill="#5abeaf" style="fill: var(--color3, #5abeaf)" d="M7.111 0h17.778c3.927 0 7.111 3.184 7.111 7.111v17.778c0 3.927-3.184 7.111-7.111 7.111h-17.778c-3.927 0-7.111-3.184-7.111-7.111v-17.778c0-3.927 3.184-7.111 7.111-7.111z"></path>
<path fill="none" stroke="#000" style="stroke: var(--color4, #000)" stroke-linejoin="miter" stroke-linecap="butt" stroke-miterlimit="4" stroke-width="0.8889" d="M7.111 0.444h17.778c3.682 0 6.667 2.985 6.667 6.667v17.778c0 3.682-2.985 6.667-6.667 6.667h-17.778c-3.682 0-6.667-2.985-6.667-6.667v-17.778c0-3.682 2.985-6.667 6.667-6.667z"></path>
<path fill="#fff" style="fill: var(--color1, #fff)" d="M13.654 22.5c-0.034 0-0.034 0-0.034 0-0.34 0-0.612-0.238-0.68-0.544l-2.414-9.28-0.748 3.433c-0.102 0.34-0.374 0.578-0.748 0.578h-4.283c-0.408 0-0.748-0.34-0.748-0.748s0.34-0.748 0.748-0.748h3.705l1.292-5.813c0.068-0.34 0.34-0.578 0.68-0.578s0.646 0.238 0.748 0.544l2.516 9.722 1.258-3.977c0.102-0.306 0.374-0.51 0.714-0.51h2.72c0.306 0 0.578 0.17 0.68 0.442l0.578 1.394 1.258-6.221c0.068-0.34 0.34-0.578 0.68-0.612 0.34 0 0.646 0.238 0.748 0.578l1.122 4.215h3.807c0.408 0 0.748 0.34 0.748 0.748s-0.34 0.714-0.748 0.714h-4.385c-0.34 0-0.646-0.204-0.714-0.544l-0.442-1.666-1.088 5.439c-0.068 0.306-0.34 0.544-0.646 0.578-0.34 0.034-0.646-0.136-0.748-0.442l-1.326-3.161h-1.7l-1.87 5.949c-0.102 0.306-0.374 0.51-0.68 0.51z"></path>
</symbol>
</defs>
</svg>
