<svg aria-hidden="true" style="position: absolute; width: 0; height: 0; overflow: hidden;" version="1.1" xmlns="http://www.w3.org/2000/svg" xmlns:xlink="http://www.w3.org/1999/xlink">
<defs>
<symbol id="icon-blood" viewBox="0 0 29 32">
<path fill="#f88c8c" style="fill: var(--color1, #f88c8c)" d="M11.494 32c3.578-0.007 6.948-1.647 9.123-4.44v-3.362h-4.879v-4.699h4.88l-0.001-4.796h0.496c-2.837-5.804-8.044-12.678-9.62-14.702-2.197 2.829-11.493 15.119-11.493 20.69 0.003 2.998 1.215 5.874 3.37 7.993 2.155 2.12 5.076 3.313 8.123 3.316zM11.494 29.31v1.156c-2.633-0.003-5.156-1.033-7.019-2.865s-2.909-4.316-2.912-6.907h1.175c0.003 2.284 0.925 4.474 2.566 6.089 1.642 1.615 3.867 2.524 6.187 2.527h0.003z"></path>
<path fill="#f88c8c" style="fill: var(--color1, #f88c8c)" d="M24.22 15.858h-2.426v4.794h-4.879v2.387h4.879v4.794h2.426v-4.794h4.873v-2.387h-4.873v-4.794z"></path>
</symbol>
<symbol id="icon-pills" viewBox="0 0 32 32">
<path fill="#64d3c2" style="fill: var(--color2, #64d3c2)" d="M15.953 2.563c-7.386 0-13.394 6.008-13.394 13.394s6.009 13.394 13.394 13.394c7.385 0 13.394-6.008 13.394-13.393s-6.008-13.394-13.394-13.394zM12.808 14.706l11.125 9.671c-2.082 1.974-4.891 3.189-7.98 3.189-6.402 0-11.61-5.208-11.61-11.61 0-2.508 0.802-4.831 2.16-6.731l6.305 5.481zM19.157 17.207l-11.156-9.698c2.079-1.958 4.877-3.162 7.952-3.162 6.401 0 11.609 5.208 11.609 11.61 0 2.494-0.793 4.805-2.137 6.699l-6.268-5.449z"></path>
<path fill="#64d3c2" style="fill: var(--color2, #64d3c2)" d="M17.839 15.672v0z"></path>
<path fill="#64d3c2" style="fill: var(--color2, #64d3c2)" d="M25.856 13.611c0.008-1.384-1.148-2.517-2.579-2.525l-6.413-0.036c-0.91-0.005-1.713 0.447-2.18 1.133l0.759 0.639c0.274-0.487 0.803-0.821 1.416-0.817l3.206 0.018-0.019 3.113-1.866-0.010 0.093 0.078-0 0 1.048 0.882 3.927 0.022c1.43 0.009 2.6-1.112 2.609-2.496z"></path>
<path fill="#64d3c2" style="fill: var(--color2, #64d3c2)" d="M6.374 17.665c-0.592 1.26-0.015 2.752 1.287 3.325s2.843 0.015 3.435-1.247l2.023-4.306-0.776-0.653-0.817 1.739-2.927-1.289 1.212-2.58-0.776-0.652c-0.002 0.004-0.004 0.008-0.007 0.012l-2.654 5.652z"></path>
<path fill="#64d3c2" style="fill: var(--color2, #64d3c2)" d="M20.666 16.404l-0.957 0.010 1.071 0.901c0.697 0.040 1.269 0.53 1.401 1.179l0.911 0.767c0.035-0.164 0.054-0.333 0.052-0.508-0.015-1.309-1.125-2.362-2.478-2.349z"></path>
<path fill="#64d3c2" style="fill: var(--color2, #64d3c2)" d="M12.183 18.863c0.014 1.309 1.125 2.364 2.477 2.349l5.27-0.053-1.060-0.891-1.189 0.012-0.011-1.021-3.302-2.779c-1.238 0.13-2.199 1.154-2.186 2.384z"></path>
</symbol>
<symbol id="icon-gamer" viewBox="0 0 23 32">
<path fill="#ccb642" style="fill: var(--color3, #ccb642)" d="M15.5 15.694c-0.029 1.331-2.002 2.407-4.433 2.407s-4.405-1.075-4.434-2.407c-3.719 0.34-6.633 3.466-6.633 7.273 0 2.569 1.326 3.496 3.33 3.833-0.639 0.515-1.049 1.302-1.049 2.185 0 1.547 1.259 2.805 2.806 2.805s2.806-1.259 2.806-2.805c0-0.049-0.001-0.097-0.004-0.145l1.039-1.039c0.049 0.003 0.097 0.004 0.146 0.004s0.097-0.001 0.146-0.004l1.038 1.038c-0.002 0.049-0.004 0.096-0.004 0.146 0 1.547 1.259 2.805 2.806 2.805s2.805-1.259 2.805-2.805c0-0.049-0.001-0.097-0.004-0.146l1.038-1.038c0.048 0.003 0.097 0.004 0.146 0.004 0.903 0 1.706-0.431 2.22-1.096 1.743-0.402 2.868-1.376 2.868-3.742 0.001-3.807-2.912-6.934-6.632-7.274zM17.045 26.605c-0.193 0-0.377-0.036-0.549-0.098l-1.93 1.929c0.063 0.171 0.098 0.355 0.098 0.549 0 0.887-0.719 1.606-1.606 1.606s-1.606-0.719-1.606-1.606c0-0.193 0.035-0.377 0.097-0.549l-1.929-1.929c-0.171 0.062-0.355 0.098-0.548 0.098s-0.377-0.036-0.548-0.098l-1.93 1.929c0.063 0.171 0.098 0.355 0.098 0.549 0 0.887-0.72 1.606-1.606 1.606s-1.606-0.719-1.606-1.606c0-0.887 0.719-1.606 1.606-1.606 0.193 0 0.377 0.036 0.548 0.098l1.93-1.929c-0.062-0.171-0.098-0.355-0.098-0.548 0-0.887 0.719-1.606 1.606-1.606s1.606 0.719 1.606 1.606c0 0.193-0.036 0.377-0.098 0.548l1.929 1.929c0.171-0.062 0.355-0.098 0.549-0.098s0.377 0.036 0.548 0.098l1.931-1.929c-0.063-0.171-0.099-0.355-0.099-0.548 0-0.887 0.72-1.606 1.606-1.606s1.606 0.719 1.606 1.606c0 0.887-0.719 1.606-1.606 1.606z"></path>
<path fill="#ccb642" style="fill: var(--color3, #ccb642)" d="M4.928 10.638c0.16 0.043 0.328 0.067 0.502 0.067h0.344c0.001 0 0.003-0 0.004-0 0.722 3.259 2.816 5.616 5.288 5.616 2.219 0 4.13-1.904 5.020-4.651 0.42-0.297 0.766-0.638 1.021-1.012 0.022-0.004 0.042-0.006 0.062-0.011 0.787-0.195 1.368-0.865 1.368-1.666v-1.353c0-0.8-0.581-1.472-1.368-1.666v-0.21c0-3.171-2.747-5.752-6.122-5.752s-6.121 2.58-6.121 5.752v0.218c-0.769 0.206-1.333 0.869-1.333 1.658v1.353c0 0.789 0.564 1.452 1.333 1.657zM11.049 1.201c2.458 0 4.488 1.729 4.799 3.959-0.98-1.703-2.751-2.843-4.781-2.843-2.062 0-3.861 1.177-4.829 2.927 0.271-2.271 2.324-4.042 4.811-4.042zM7.006 9.659c0-0.001-0.553-3.279 0.614-3.739 0 0 1.608 0.781 3.447 0.832 1.839-0.051 3.448-0.832 3.448-0.832 1.165 0.46 0.613 3.739 0.613 3.739 0.287-0.2 0.55-0.305 0.766-0.36v0.078c-0.037 0.364-0.092 0.718-0.166 1.062-0.761 0.689-2.070 1.185-3.571 1.277-0.139-0.118-0.316-0.191-0.513-0.191h-1.062c-0.442 0-0.8 0.358-0.8 0.8s0.358 0.799 0.8 0.799h1.062c0.215 0 0.41-0.086 0.554-0.225 1.112-0.062 2.127-0.311 2.969-0.7-0.868 1.965-2.379 3.267-4.1 3.267-2.473 0-4.517-2.686-4.837-6.17 0.218 0.054 0.485 0.16 0.776 0.364z"></path>
</symbol>
<symbol id="icon-heart" viewBox="0 0 32 32">
<path fill="#50a99b" style="fill: var(--color4, #50a99b)" d="M3.018 21.528l-1.778 1.505 5.774 6.814 1.778-1.505-5.774-6.814zM1.307 24.323l4.564 5.386-0.888 1.177-4.984-5.881 1.307-0.683zM5.199 25.506c0.087 0.087 0.1 0.222 0.031 0.324-0.067 0.102-0.198 0.142-0.311 0.094s-0.177-0.167-0.153-0.287c0.025-0.119 0.13-0.206 0.252-0.206 0.068 0 0.132 0.028 0.181 0.075zM5.017 24.648c0.497 0 0.924 0.35 1.021 0.838 0.097 0.486-0.164 0.974-0.623 1.164s-0.987 0.029-1.264-0.383c-0.275-0.413-0.222-0.964 0.13-1.315 0.195-0.195 0.46-0.305 0.736-0.304zM19.688 3.229l-1.29 4.187h0.001c-0.050 0.165-0.202 0.278-0.374 0.279-0.172 0-0.325-0.111-0.375-0.277l-0.704-2.285h-5.743c-0.045 0-0.080 0.037-0.080 0.080v0.051c0 0.017 0.005 0.034 0.014 0.047l0.009 0.009c0.014 0.016 0.035 0.024 0.056 0.024h5.297c0.172 0 0.324 0.113 0.374 0.277l1.151 3.736 1.29-4.187-0.001-0.001c0.050-0.165 0.202-0.278 0.374-0.279 0.173 0 0.325 0.113 0.375 0.277l0.53 1.724 3.725 0.001c0.021 0 0.042-0.008 0.056-0.022h0.001c0.014-0.016 0.022-0.035 0.022-0.056v-0.051c0-0.021-0.008-0.042-0.022-0.058-0.016-0.014-0.037-0.022-0.058-0.022h-3.278c-0.172 0-0.322-0.113-0.374-0.277l-0.978-3.176zM18.024 5.976l-0.406-1.32c-0.041-0.18-0.199-0.307-0.383-0.307h-3.892c-0.063-1.073 0.305-2.127 1.025-2.925 0.506-0.551 1.147-0.961 1.861-1.191 0.716-0.236 1.479-0.29 2.221-0.153 1.193 0.227 2.226 0.969 2.824 2.027 0.11 0.186 0.35 0.248 0.536 0.138 0.059-0.034 0.108-0.083 0.142-0.142 0.844-1.484 2.51-2.302 4.201-2.061 1.025 0.126 1.973 0.606 2.683 1.357 0.75 0.819 1.128 1.913 1.044 3.020-0.142 2.553-2.301 5.993-8.268 9.842l0.001 0.001c-1.964-1.223-3.772-2.677-5.388-4.335-1.081-1.086-1.933-2.377-2.508-3.797h2.494l1.438 4.668c0.050 0.165 0.201 0.279 0.374 0.279 0.172 0.001 0.324-0.111 0.375-0.277l1.29-4.188 0.233 0.759h0.001c0.039 0.18 0.199 0.307 0.383 0.307h4.012c0.228 0 0.447-0.092 0.61-0.253l0.003-0.003h-0.001c0.163-0.161 0.253-0.38 0.254-0.61v-0.050c0-0.229-0.092-0.448-0.254-0.61h-0.001c-0.161-0.163-0.38-0.254-0.61-0.254h-2.989l-1.265-4.111c-0.049-0.165-0.201-0.278-0.372-0.279-0.173-0.001-0.325 0.111-0.376 0.277l-1.29 4.191zM26.030 4.568c0.003 0.106-0.037 0.208-0.111 0.285-0.073 0.076-0.174 0.119-0.281 0.119s-0.209-0.043-0.282-0.119c-0.075-0.076-0.114-0.178-0.111-0.285v-0.905h-0.905c-0.105 0.003-0.209-0.037-0.285-0.111-0.076-0.073-0.119-0.174-0.119-0.281s0.043-0.208 0.119-0.282c0.076-0.075 0.18-0.114 0.285-0.111h0.905v-0.903c-0.003-0.106 0.037-0.21 0.111-0.286 0.073-0.076 0.176-0.119 0.282-0.119s0.207 0.043 0.281 0.119c0.075 0.076 0.114 0.18 0.111 0.286v0.905h0.905v-0.001c0.211 0.007 0.38 0.181 0.38 0.393 0 0.211-0.169 0.385-0.38 0.392h-0.905v0.905zM8.894 27.25l-4.955-5.847c0.797-0.649 1.37-1.583 1.967-2.557 1.189-1.939 2.485-4.049 5.882-3.881h0.025l7.075-0.114c0.562 0.049 1.066 0.368 1.349 0.856 0.101 0.214 0.145 0.451 0.128 0.687-0.017 0.245-0.088 0.485-0.207 0.701-0.21 0.421-0.619 0.708-1.087 0.763l-0.035 0.004-4.066 0.66c-0.224 0.020-0.43 0.128-0.57 0.304-0.101 0.13-0.155 0.288-0.157 0.452-0.003 0.149 0.031 0.298 0.098 0.431 0.135 0.265 0.368 0.465 0.649 0.559 0.058 0.020 0.118 0.025 0.177 0.017l3.709-0.501c0.093-0.012 0.172-0.020 0.248-0.026 0.312-0.007 0.62-0.083 0.899-0.223l8.738-4.76c0.804-0.27 1.674-0.257 2.469 0.037 0.189 0.079 0.351 0.206 0.472 0.37 0.084 0.121 0.115 0.27 0.090 0.416-0.122 0.405-0.388 0.753-0.747 0.977l-10.573 7.114c-1.848 1.243-3.695 1.318-5.464 1.39-2.162 0.088-4.214 0.172-6.114 2.17z"></path>
</symbol>
<symbol id="icon-doctor" viewBox="0 0 29 32">
<path fill="#c67070" style="fill: var(--color5, #c67070)" d="M23.155 19.765c-0.076-0.016-0.151-0.033-0.227-0.047-0.244-0.226-0.438-0.542-0.587-0.919-0.376-0.946-0.486-2.291-0.476-3.628 0.021-2.406 0.444-4.79 0.444-4.79s0 0 0-0.001c0-0.333-0.008-0.653-0.020-0.966-0.004-0.099-0.011-0.193-0.016-0.29-0.012-0.211-0.024-0.419-0.042-0.621-0.009-0.106-0.020-0.209-0.030-0.313-0.018-0.186-0.041-0.368-0.065-0.545-0.013-0.099-0.026-0.199-0.041-0.296-0.027-0.181-0.058-0.359-0.089-0.532-0.016-0.079-0.029-0.161-0.045-0.24-0.049-0.236-0.101-0.465-0.157-0.685-0.004-0.008-0.004-0.016-0.007-0.026-0.060-0.231-0.124-0.45-0.194-0.661-0.022-0.063-0.043-0.123-0.065-0.184-0.047-0.146-0.101-0.289-0.154-0.426-0.026-0.069-0.054-0.137-0.082-0.203-0.051-0.124-0.106-0.246-0.161-0.363-0.029-0.064-0.058-0.129-0.089-0.19-0.060-0.119-0.121-0.233-0.181-0.343-0.029-0.052-0.058-0.105-0.086-0.155-0.082-0.142-0.17-0.28-0.255-0.411-0.008-0.013-0.016-0.027-0.026-0.041-0.097-0.144-0.198-0.281-0.298-0.41-0.030-0.038-0.060-0.073-0.092-0.109-0.073-0.090-0.146-0.178-0.221-0.261-0.039-0.041-0.077-0.080-0.116-0.123-0.068-0.074-0.139-0.144-0.21-0.213-0.039-0.038-0.078-0.076-0.117-0.112-0.074-0.068-0.148-0.131-0.224-0.194-0.036-0.031-0.073-0.062-0.109-0.090-0.095-0.075-0.19-0.146-0.287-0.213-0.015-0.012-0.032-0.025-0.046-0.035-0.112-0.078-0.225-0.15-0.339-0.217-0.033-0.019-0.066-0.036-0.097-0.055-0.081-0.047-0.162-0.092-0.24-0.131-0.043-0.022-0.083-0.042-0.124-0.062-0.073-0.035-0.144-0.069-0.215-0.101-0.043-0.018-0.083-0.036-0.125-0.053-0.073-0.031-0.144-0.058-0.218-0.085-0.037-0.014-0.077-0.029-0.112-0.043-0.085-0.031-0.171-0.058-0.253-0.083-0.023-0.007-0.047-0.016-0.069-0.022-0.105-0.031-0.207-0.058-0.307-0.083-0.034-0.008-0.065-0.014-0.097-0.021-0.068-0.016-0.137-0.032-0.203-0.045-0.038-0.007-0.077-0.015-0.114-0.021-0.058-0.011-0.116-0.020-0.171-0.029-0.038-0.006-0.076-0.011-0.11-0.016-0.054-0.007-0.109-0.014-0.162-0.020-0.036-0.003-0.069-0.008-0.101-0.011-0.055-0.005-0.109-0.010-0.162-0.014-0.028-0.001-0.055-0.005-0.079-0.006-0.074-0.005-0.142-0.006-0.208-0.009-0.030-0.001-0.057-0.001-0.087-0.001-0.033 0-0.068-0.001-0.1-0.001-0.163 0-0.293 0.006-0.384 0.014-0.013 0-0.021 0.001-0.031 0.002-0.033 0.002-0.060 0.005-0.079 0.007-0.007 0.001-0.016 0.001-0.021 0.003-0.018 0.001-0.029 0.003-0.029 0.003-0.095-0.006-0.189-0.010-0.282-0.014-0.093 0.003-0.186 0.007-0.282 0.012 0 0-0.011-0.001-0.029-0.003-0.006-0.001-0.015-0.001-0.020-0.002-0.018-0.002-0.047-0.005-0.079-0.007-0.009-0.001-0.019-0.001-0.031-0.001-0.092-0.008-0.221-0.015-0.383-0.015-0.033 0-0.069 0-0.104 0-0.028 0-0.053 0-0.082 0.001-0.066 0.002-0.137 0.006-0.21 0.009-0.022 0.001-0.046 0.003-0.069 0.006-0.055 0.003-0.112 0.008-0.172 0.015-0.031 0.002-0.063 0.006-0.094 0.010-0.056 0.006-0.112 0.014-0.171 0.021-0.034 0.005-0.068 0.010-0.102 0.015-0.062 0.009-0.123 0.020-0.186 0.032-0.033 0.006-0.067 0.011-0.101 0.018-0.074 0.015-0.146 0.032-0.224 0.048-0.026 0.006-0.050 0.012-0.078 0.018-0.104 0.024-0.209 0.052-0.314 0.085-0.017 0.004-0.034 0.011-0.051 0.016-0.088 0.028-0.178 0.057-0.269 0.089-0.035 0.012-0.070 0.026-0.105 0.039-0.076 0.028-0.151 0.058-0.227 0.090-0.039 0.016-0.078 0.033-0.116 0.050-0.076 0.032-0.151 0.069-0.227 0.106-0.038 0.018-0.077 0.036-0.114 0.057-0.083 0.043-0.169 0.091-0.254 0.14-0.028 0.017-0.057 0.031-0.085 0.049-0.114 0.068-0.228 0.141-0.343 0.22-0.011 0.007-0.021 0.016-0.031 0.023-0.102 0.071-0.203 0.146-0.303 0.226-0.034 0.026-0.068 0.055-0.102 0.083-0.078 0.064-0.154 0.131-0.231 0.2-0.039 0.036-0.077 0.072-0.114 0.108-0.074 0.070-0.145 0.143-0.217 0.219-0.036 0.038-0.073 0.077-0.109 0.116-0.077 0.085-0.153 0.175-0.228 0.267-0.028 0.035-0.055 0.066-0.083 0.102-0.103 0.13-0.203 0.267-0.301 0.412-0.007 0.011-0.014 0.023-0.020 0.033-0.089 0.133-0.175 0.274-0.262 0.42-0.028 0.048-0.053 0.1-0.082 0.15-0.062 0.113-0.124 0.229-0.183 0.349-0.030 0.062-0.059 0.124-0.088 0.188-0.055 0.119-0.109 0.242-0.163 0.368-0.026 0.066-0.055 0.132-0.080 0.2-0.054 0.139-0.106 0.284-0.156 0.433-0.020 0.060-0.043 0.117-0.061 0.179-0.070 0.213-0.136 0.433-0.196 0.663-0.002 0.009-0.005 0.019-0.006 0.028-0.056 0.219-0.11 0.448-0.156 0.684-0.015 0.078-0.028 0.159-0.044 0.237-0.032 0.173-0.063 0.352-0.091 0.534-0.015 0.096-0.027 0.196-0.041 0.295-0.024 0.178-0.046 0.359-0.063 0.546-0.011 0.104-0.021 0.207-0.031 0.314-0.016 0.2-0.031 0.408-0.043 0.619-0.006 0.097-0.012 0.192-0.016 0.292-0.013 0.312-0.021 0.632-0.021 0.965 0 0 0 0 0 0.001s0.422 2.384 0.443 4.79c0.013 1.337-0.099 2.681-0.475 3.629-0.151 0.377-0.343 0.693-0.587 0.917-0.079 0.015-0.152 0.031-0.226 0.049-0.401 0.093-1.707 0.203-3.027 1.61-0.803 0.857-1.612 2.192-2.224 4.297-0.055 0.19-0.092 0.382-0.109 0.577-0.055 0.581 0.057 1.169 0.324 1.674 1.325 2.506 8.295 3.276 13.929 3.276s12.605-0.77 13.93-3.277c0.265-0.507 0.377-1.095 0.324-1.675-0.025-0.198-0.062-0.391-0.116-0.58-0.612-2.107-1.42-3.44-2.222-4.295-1.321-1.408-2.628-1.519-3.027-1.612zM8.052 9.946c0.035-0.025 0.074-0.042 0.114-0.049 0.092-0.016 0.189 0.019 0.283 0.095 0 0 0-0.007 0.002-0.021 0.033-0.318 0.456-3.89 3.13-3.642l8.175 4.208 0.664-0.639c0.022 0.004 0.045 0.011 0.066 0.021 0.289 0.137 0.415 0.816 0.275 1.593-0.106 0.595-0.338 1.086-0.584 1.296-0.1 0.083-0.201 0.122-0.296 0.106-0.054-0.009-0.106-0.036-0.15-0.078-0.546 1.696-1.587 3.385-2.902 4.402-0.768 0.591-1.628 0.953-2.538 0.953-0.915 0-1.78-0.366-2.551-0.965-1.308-1.017-2.346-2.7-2.888-4.389-0.045 0.041-0.093 0.068-0.148 0.078-0.111 0.020-0.231-0.036-0.344-0.15-0.229-0.23-0.439-0.695-0.539-1.251-0.131-0.733-0.027-1.381 0.232-1.566zM8.686 28.267c-0.118 0.098-0.264 0.151-0.418 0.151h-0.724c-0.363 0-0.659-0.296-0.659-0.659l0.002-0.047c0.024-0.34 0.312-0.612 0.657-0.612h0.724c0.074 0 0.147 0.012 0.216 0.037 0.044-0.012 0.058-0.023 0.058-0.023 0.081-0.143 0.081-0.738 0.081-1.024 0-0.575-0.144-1.271-0.397-1.919-0.131-0.075-0.237-0.187-0.302-0.324-0.439-0.919-1.036-1.513-1.521-1.513-0.496 0-1.123 0.642-1.559 1.597-0.071 0.156-0.197 0.282-0.351 0.357-0.228 0.619-0.354 1.255-0.354 1.801 0 0.24 0 0.877 0.092 1.027 0.001 0 0.021 0.012 0.079 0.026 0.075-0.028 0.155-0.043 0.236-0.043h0.725c0.335 0 0.615 0.253 0.653 0.582l0.004 0.007 0.001 0.043c0 0.389-0.295 0.685-0.658 0.685h-0.725c-0.144 0-0.283-0.048-0.397-0.136-0.414-0.078-0.706-0.26-0.891-0.558-0.224-0.36-0.265-0.832-0.265-1.633 0-0.703 0.162-1.511 0.457-2.284-0.043-0.165-0.029-0.338 0.043-0.494 0.307-0.671 0.698-1.246 1.129-1.662 0.237-0.229 0.492-0.412 0.759-0.546 0.097-0.228 0.263-0.42 0.468-0.542 0.107-0.605 0.447-1.246 0.941-1.771 0.681-0.724 1.536-1.122 2.408-1.122h0.173v0.004c0.302 0.017 0.542 0.265 0.542 0.571s-0.241 0.554-0.542 0.571v0.002h-0.022c-0.004 0-0.007 0.001-0.010 0.001s-0.007-0.001-0.010-0.001h-0.131c-1.074 0-1.963 1.018-2.188 1.807 0.154 0.114 0.279 0.269 0.361 0.45 0.741 0.349 1.395 1.085 1.896 2.132 0.084 0.177 0.095 0.376 0.033 0.557 0.3 0.773 0.472 1.617 0.472 2.327-0 0.995-0 1.935-1.084 2.176zM14.262 24.915c0 0-4.304-4.070-5.008-4.97-0.148-0.192-0.242-0.394-0.267-0.605v-0.001c0.035-0.013 0.114-0.041 0.222-0.090 0.043-0.018 0.092-0.043 0.14-0.070 0.426-0.223 1.052-0.689 1.052-1.509 0 0 0 0 0.001 0 0.671 0.664 1.419 1.193 2.217 1.509 0.536 0.213 1.096 0.331 1.671 0.331s1.135-0.118 1.671-0.331c0.791-0.313 1.53-0.833 2.199-1.49 0.005 0.003 0.009 0.005 0.014 0.007 0.016 1.056 1.077 1.519 1.363 1.626 0.001 0.004 0 0.009-0.001 0.017-0.024 0.209-0.119 0.412-0.267 0.605-0.703 0.899-5.006 4.971-5.006 4.971zM21.546 28.040c0 0.12-0.109 0.217-0.242 0.217h-1.318v1.317c0 0.134-0.097 0.243-0.216 0.243h-1.301c-0.12 0-0.216-0.109-0.216-0.243v-1.317h-1.318c-0.134 0-0.243-0.097-0.243-0.217v-1.3c0-0.12 0.109-0.217 0.243-0.217h1.318v-1.318c0-0.134 0.097-0.242 0.216-0.242h1.301c0.119 0 0.216 0.108 0.216 0.242v1.318h1.318c0.134 0 0.242 0.097 0.242 0.217v1.3zM23.146 23.402c-0.336 0.627-0.987 1.017-1.698 1.017-0.314 0-0.628-0.079-0.906-0.228-0.453-0.242-0.785-0.647-0.933-1.138s-0.097-1.012 0.145-1.465c0.24-0.449 0.651-0.78 1.142-0.927-0.171-0.669-0.629-1.47-1.434-1.734l-0.193-0.063c-0.016-0.006-0.033-0.009-0.048-0.016l-0.062-0.020 0.004-0.011c-0.173-0.1-0.291-0.285-0.291-0.499 0-0.319 0.259-0.578 0.578-0.578 0.022 0 0.043 0.004 0.065 0.007l0.003-0.009 0.041 0.013c0.047 0.009 0.091 0.024 0.132 0.043l0.13 0.042c0.829 0.273 1.517 0.918 1.938 1.818 0.155 0.33 0.262 0.674 0.32 1.024 0.1 0.034 0.192 0.074 0.28 0.121 0.934 0.5 1.288 1.668 0.788 2.604z"></path>
<path fill="#c67070" style="fill: var(--color5, #c67070)" d="M21.451 23.534c0.574 0 1.040-0.466 1.040-1.040s-0.466-1.040-1.040-1.040c-0.575 0-1.040 0.466-1.040 1.040s0.466 1.040 1.040 1.040z"></path>
</symbol>
<symbol id="icon-Right" viewBox="0 0 32 32">
<path fill="none" stroke="#fff" style="stroke: var(--color6, #fff)" stroke-linejoin="round" stroke-linecap="round" stroke-miterlimit="4" stroke-width="2.0714" d="M18.063 7.43l8.604 8.567-8.604 8.569"></path>
<path fill="none" stroke="#fff" style="stroke: var(--color6, #fff)" stroke-linejoin="round" stroke-linecap="round" stroke-miterlimit="4" stroke-width="2.0714" d="M26.665 16h-21.333"></path>
</symbol>
<symbol id="icon-Excellence-Healthcare" viewBox="0 0 482 32">
<path fill="#cbfff5" style="fill: var(--color7, #cbfff5)" d="M0 31.568v-31.568h22.747v6.906h-14.178v5.426h13.007v6.906h-13.007v5.426h14.116v6.906h-22.685z"></path>
<path fill="#cbfff5" style="fill: var(--color7, #cbfff5)" d="M34.455 7.892l3.452 7.337 3.637-7.337h8.445l-6.349 11.838 6.658 11.838h-8.384l-4.007-7.522-3.884 7.522h-8.507l6.719-11.838-6.288-11.838h8.507z"></path>
<path fill="#cbfff5" style="fill: var(--color7, #cbfff5)" d="M63.612 32c-2.568 0-4.767-0.509-6.596-1.526-1.829-1.028-3.231-2.456-4.207-4.285-0.976-1.839-1.464-3.972-1.464-6.397s0.488-4.552 1.464-6.381c0.976-1.839 2.378-3.268 4.207-4.285 1.829-1.028 4.028-1.541 6.596-1.541 2.322 0 4.331 0.421 6.026 1.264 1.705 0.832 3.025 2.014 3.96 3.545 0.935 1.521 1.407 3.309 1.418 5.364h-7.89c-0.113-1.243-0.473-2.189-1.079-2.836-0.596-0.658-1.367-0.986-2.312-0.986-0.74 0-1.387 0.216-1.942 0.647-0.555 0.421-0.986 1.064-1.294 1.927-0.308 0.853-0.462 1.927-0.462 3.222s0.154 2.374 0.462 3.237c0.308 0.853 0.74 1.495 1.294 1.927 0.555 0.421 1.202 0.632 1.942 0.632 0.627 0 1.182-0.144 1.665-0.432 0.483-0.298 0.873-0.73 1.171-1.295 0.308-0.575 0.494-1.274 0.555-2.096h7.89c-0.031 2.086-0.509 3.905-1.433 5.457-0.924 1.541-2.235 2.733-3.929 3.576-1.685 0.843-3.699 1.264-6.041 1.264z"></path>
<path fill="#cbfff5" style="fill: var(--color7, #cbfff5)" d="M89.869 32c-2.527 0-4.706-0.483-6.535-1.449-1.818-0.976-3.221-2.374-4.207-4.193-0.976-1.829-1.464-4.018-1.464-6.567 0-2.446 0.493-4.583 1.48-6.412s2.378-3.252 4.176-4.27c1.798-1.017 3.919-1.526 6.365-1.526 1.787 0 3.406 0.277 4.855 0.832s2.686 1.362 3.714 2.42c1.028 1.048 1.819 2.322 2.373 3.823s0.832 3.191 0.832 5.071v1.973h-21.144v-4.686h13.315c-0.010-0.678-0.185-1.274-0.524-1.788-0.329-0.524-0.776-0.93-1.34-1.218-0.555-0.298-1.187-0.447-1.896-0.447-0.689 0-1.32 0.149-1.896 0.447-0.575 0.288-1.038 0.689-1.387 1.202-0.34 0.514-0.519 1.115-0.54 1.803v5.056c0 0.76 0.159 1.439 0.478 2.035s0.776 1.064 1.371 1.403c0.596 0.339 1.315 0.509 2.158 0.509 0.585 0 1.12-0.082 1.603-0.247 0.493-0.164 0.914-0.401 1.263-0.709 0.349-0.319 0.606-0.699 0.77-1.141h7.767c-0.267 1.644-0.899 3.073-1.895 4.285-0.997 1.202-2.317 2.137-3.961 2.805-1.634 0.658-3.544 0.986-5.733 0.986z"></path>
<path fill="#cbfff5" style="fill: var(--color7, #cbfff5)" d="M113.436 0v31.568h-8.507v-31.568h8.507z"></path>
<path fill="#cbfff5" style="fill: var(--color7, #cbfff5)" d="M126.277 0v31.568h-8.507v-31.568h8.507z"></path>
<path fill="#cbfff5" style="fill: var(--color7, #cbfff5)" d="M141.954 32c-2.527 0-4.706-0.483-6.535-1.449-1.819-0.976-3.221-2.374-4.207-4.193-0.976-1.829-1.464-4.018-1.464-6.567 0-2.446 0.493-4.583 1.479-6.412s2.379-3.252 4.177-4.27c1.798-1.017 3.919-1.526 6.364-1.526 1.788 0 3.406 0.277 4.855 0.832s2.687 1.362 3.714 2.42c1.028 1.048 1.818 2.322 2.373 3.823s0.832 3.191 0.832 5.071v1.973h-21.144v-4.686h13.315c-0.010-0.678-0.185-1.274-0.524-1.788-0.329-0.524-0.776-0.93-1.341-1.218-0.555-0.298-1.186-0.447-1.895-0.447-0.689 0-1.32 0.149-1.896 0.447-0.575 0.288-1.038 0.689-1.387 1.202-0.339 0.514-0.519 1.115-0.539 1.803v5.056c0 0.76 0.159 1.439 0.478 2.035s0.776 1.064 1.372 1.403c0.596 0.339 1.315 0.509 2.158 0.509 0.585 0 1.119-0.082 1.602-0.247 0.493-0.164 0.914-0.401 1.264-0.709 0.349-0.319 0.606-0.699 0.77-1.141h7.767c-0.267 1.644-0.899 3.073-1.896 4.285-0.996 1.202-2.316 2.137-3.96 2.805-1.634 0.658-3.545 0.986-5.733 0.986z"></path>
<path fill="#cbfff5" style="fill: var(--color7, #cbfff5)" d="M165.521 18.25v13.318h-8.507v-23.676h8.075v4.501h0.247c0.514-1.5 1.418-2.677 2.712-3.53 1.305-0.853 2.825-1.279 4.562-1.279 1.675 0 3.128 0.385 4.361 1.156 1.243 0.76 2.203 1.809 2.882 3.144 0.688 1.336 1.027 2.862 1.017 4.578v15.106h-8.507v-13.318c0.010-1.172-0.288-2.091-0.894-2.759-0.596-0.668-1.428-1.002-2.496-1.002-0.699 0-1.31 0.154-1.834 0.462-0.514 0.298-0.91 0.73-1.187 1.295-0.277 0.555-0.421 1.223-0.431 2.004z"></path>
<path fill="#cbfff5" style="fill: var(--color7, #cbfff5)" d="M196.474 32c-2.568 0-4.767-0.509-6.596-1.526-1.829-1.028-3.231-2.456-4.207-4.285-0.976-1.839-1.464-3.972-1.464-6.397s0.488-4.552 1.464-6.381c0.976-1.839 2.379-3.268 4.207-4.285 1.829-1.028 4.027-1.541 6.596-1.541 2.322 0 4.331 0.421 6.026 1.264 1.705 0.832 3.025 2.014 3.96 3.545 0.935 1.521 1.407 3.309 1.418 5.364h-7.89c-0.113-1.243-0.473-2.189-1.079-2.836-0.596-0.658-1.367-0.986-2.312-0.986-0.74 0-1.387 0.216-1.942 0.647-0.555 0.421-0.986 1.064-1.294 1.927-0.308 0.853-0.462 1.927-0.462 3.222s0.154 2.374 0.462 3.237c0.308 0.853 0.74 1.495 1.294 1.927 0.555 0.421 1.202 0.632 1.942 0.632 0.627 0 1.182-0.144 1.665-0.432 0.483-0.298 0.873-0.73 1.171-1.295 0.308-0.575 0.494-1.274 0.555-2.096h7.89c-0.031 2.086-0.509 3.905-1.433 5.457-0.924 1.541-2.235 2.733-3.929 3.576-1.685 0.843-3.699 1.264-6.041 1.264z"></path>
<path fill="#cbfff5" style="fill: var(--color7, #cbfff5)" d="M222.731 32c-2.527 0-4.706-0.483-6.535-1.449-1.818-0.976-3.221-2.374-4.207-4.193-0.976-1.829-1.464-4.018-1.464-6.567 0-2.446 0.493-4.583 1.48-6.412s2.378-3.252 4.176-4.27c1.798-1.017 3.919-1.526 6.365-1.526 1.787 0 3.406 0.277 4.855 0.832s2.686 1.362 3.714 2.42c1.028 1.048 1.819 2.322 2.373 3.823s0.832 3.191 0.832 5.071v1.973h-21.144v-4.686h13.315c-0.010-0.678-0.185-1.274-0.524-1.788-0.329-0.524-0.776-0.93-1.34-1.218-0.555-0.298-1.187-0.447-1.896-0.447-0.689 0-1.32 0.149-1.896 0.447-0.575 0.288-1.038 0.689-1.387 1.202-0.34 0.514-0.519 1.115-0.54 1.803v5.056c0 0.76 0.159 1.439 0.478 2.035s0.776 1.064 1.371 1.403c0.596 0.339 1.315 0.509 2.158 0.509 0.585 0 1.12-0.082 1.603-0.247 0.493-0.164 0.914-0.401 1.263-0.709 0.349-0.319 0.606-0.699 0.77-1.141h7.767c-0.267 1.644-0.899 3.073-1.895 4.285-0.997 1.202-2.317 2.137-3.961 2.805-1.634 0.658-3.544 0.986-5.733 0.986z"></path>
<path fill="#cbfff5" style="fill: var(--color7, #cbfff5)" d="M246.313 31.568v-31.568h8.569v12.331h11.342v-12.331h8.569v31.568h-8.569v-12.331h-11.342v12.331h-8.569z"></path>
<path fill="#cbfff5" style="fill: var(--color7, #cbfff5)" d="M290.327 32c-2.527 0-4.706-0.483-6.535-1.449-1.819-0.976-3.221-2.374-4.207-4.193-0.976-1.829-1.464-4.018-1.464-6.567 0-2.446 0.493-4.583 1.479-6.412s2.379-3.252 4.177-4.27c1.798-1.017 3.919-1.526 6.364-1.526 1.788 0 3.406 0.277 4.855 0.832s2.687 1.362 3.714 2.42c1.028 1.048 1.819 2.322 2.373 3.823s0.832 3.191 0.832 5.071v1.973h-21.144v-4.686h13.315c-0.010-0.678-0.185-1.274-0.524-1.788-0.329-0.524-0.776-0.93-1.341-1.218-0.555-0.298-1.186-0.447-1.895-0.447-0.689 0-1.32 0.149-1.896 0.447-0.575 0.288-1.038 0.689-1.387 1.202-0.339 0.514-0.519 1.115-0.539 1.803v5.056c0 0.76 0.159 1.439 0.478 2.035s0.776 1.064 1.372 1.403c0.596 0.339 1.315 0.509 2.158 0.509 0.585 0 1.119-0.082 1.602-0.247 0.493-0.164 0.914-0.401 1.264-0.709 0.349-0.319 0.606-0.699 0.77-1.141h7.767c-0.267 1.644-0.899 3.073-1.896 4.285-0.996 1.202-2.316 2.137-3.96 2.805-1.634 0.658-3.545 0.986-5.733 0.986z"></path>
<path fill="#cbfff5" style="fill: var(--color7, #cbfff5)" d="M311.983 31.938c-1.51 0-2.846-0.247-4.007-0.74-1.151-0.504-2.055-1.264-2.712-2.281s-0.987-2.312-0.987-3.884c0-1.295 0.221-2.4 0.663-3.314 0.441-0.925 1.058-1.68 1.849-2.266s1.711-1.033 2.759-1.341c1.058-0.308 2.199-0.509 3.422-0.601 1.325-0.103 2.389-0.226 3.19-0.37 0.812-0.154 1.397-0.365 1.757-0.632 0.36-0.277 0.539-0.642 0.539-1.094v-0.062c0-0.617-0.236-1.089-0.709-1.418s-1.079-0.493-1.819-0.493c-0.812 0-1.474 0.18-1.988 0.54-0.503 0.349-0.807 0.889-0.909 1.619h-7.829c0.103-1.439 0.56-2.764 1.371-3.977 0.822-1.223 2.019-2.199 3.591-2.929 1.572-0.74 3.534-1.11 5.887-1.11 1.695 0 3.216 0.2 4.562 0.601 1.346 0.391 2.491 0.94 3.436 1.649 0.945 0.699 1.665 1.521 2.158 2.466 0.503 0.935 0.755 1.952 0.755 3.052v16.216h-7.952v-3.329h-0.185c-0.472 0.884-1.048 1.598-1.726 2.143-0.667 0.545-1.433 0.94-2.296 1.187-0.853 0.247-1.793 0.37-2.821 0.37zM314.757 26.574c0.647 0 1.253-0.134 1.818-0.401 0.575-0.267 1.043-0.652 1.403-1.156s0.539-1.115 0.539-1.834v-1.973c-0.226 0.093-0.468 0.18-0.724 0.262-0.247 0.082-0.514 0.159-0.802 0.231-0.277 0.072-0.575 0.139-0.894 0.2-0.308 0.062-0.632 0.118-0.971 0.17-0.658 0.103-1.197 0.272-1.618 0.509-0.411 0.226-0.719 0.509-0.924 0.848-0.196 0.329-0.293 0.699-0.293 1.11 0 0.658 0.231 1.161 0.693 1.511s1.053 0.524 1.772 0.524z"></path>
<path fill="#cbfff5" style="fill: var(--color7, #cbfff5)" d="M339.534 0v31.568h-8.507v-31.568h8.507z"></path>
<path fill="#cbfff5" style="fill: var(--color7, #cbfff5)" d="M357.985 7.892v6.166h-15.596v-6.166h15.596zM345.409 2.22h8.507v21.734c0 0.329 0.056 0.606 0.169 0.832 0.113 0.216 0.287 0.38 0.524 0.493 0.236 0.103 0.539 0.154 0.909 0.154 0.257 0 0.555-0.031 0.894-0.093 0.349-0.062 0.606-0.113 0.77-0.154l1.233 5.981c-0.38 0.113-0.924 0.252-1.633 0.416-0.699 0.164-1.531 0.272-2.497 0.324-1.952 0.103-3.591-0.098-4.916-0.601-1.326-0.514-2.322-1.32-2.99-2.42s-0.991-2.477-0.971-4.131v-22.536z"></path>
<path fill="#cbfff5" style="fill: var(--color7, #cbfff5)" d="M370.472 18.25v13.318h-8.507v-31.568h8.199v12.393h0.247c0.534-1.511 1.423-2.687 2.666-3.53 1.243-0.853 2.738-1.279 4.484-1.279 1.675 0 3.129 0.38 4.361 1.141 1.243 0.76 2.204 1.809 2.882 3.145 0.689 1.336 1.028 2.867 1.017 4.593v15.106h-8.507v-13.318c0.011-1.172-0.283-2.091-0.878-2.759-0.585-0.668-1.423-1.002-2.512-1.002-0.689 0-1.295 0.154-1.819 0.462-0.514 0.298-0.914 0.73-1.202 1.295-0.277 0.555-0.421 1.223-0.431 2.004z"></path>
<path fill="#cbfff5" style="fill: var(--color7, #cbfff5)" d="M401.425 32c-2.569 0-4.767-0.509-6.596-1.526-1.829-1.028-3.231-2.456-4.207-4.285-0.976-1.839-1.464-3.972-1.464-6.397s0.488-4.552 1.464-6.381c0.976-1.839 2.379-3.268 4.207-4.285 1.829-1.028 4.027-1.541 6.596-1.541 2.322 0 4.33 0.421 6.025 1.264 1.705 0.832 3.026 2.014 3.96 3.545 0.935 1.521 1.408 3.309 1.418 5.364h-7.89c-0.113-1.243-0.473-2.189-1.079-2.836-0.596-0.658-1.367-0.986-2.312-0.986-0.74 0-1.387 0.216-1.942 0.647-0.555 0.421-0.986 1.064-1.295 1.927-0.308 0.853-0.462 1.927-0.462 3.222s0.154 2.374 0.462 3.237c0.309 0.853 0.74 1.495 1.295 1.927 0.555 0.421 1.202 0.632 1.942 0.632 0.626 0 1.181-0.144 1.664-0.432 0.483-0.298 0.873-0.73 1.172-1.295 0.308-0.575 0.493-1.274 0.555-2.096h7.89c-0.031 2.086-0.508 3.905-1.433 5.457-0.924 1.541-2.234 2.733-3.929 3.576-1.685 0.843-3.698 1.264-6.041 1.264z"></path>
<path fill="#cbfff5" style="fill: var(--color7, #cbfff5)" d="M422.934 31.938c-1.51 0-2.846-0.247-4.007-0.74-1.151-0.504-2.055-1.264-2.712-2.281s-0.987-2.312-0.987-3.884c0-1.295 0.221-2.4 0.663-3.314 0.441-0.925 1.058-1.68 1.849-2.266s1.711-1.033 2.759-1.341c1.058-0.308 2.199-0.509 3.422-0.601 1.325-0.103 2.389-0.226 3.19-0.37 0.812-0.154 1.397-0.365 1.757-0.632 0.36-0.277 0.539-0.642 0.539-1.094v-0.062c0-0.617-0.236-1.089-0.709-1.418s-1.079-0.493-1.819-0.493c-0.812 0-1.474 0.18-1.988 0.54-0.503 0.349-0.807 0.889-0.909 1.619h-7.829c0.103-1.439 0.56-2.764 1.371-3.977 0.822-1.223 2.019-2.199 3.591-2.929 1.572-0.74 3.534-1.11 5.887-1.11 1.695 0 3.216 0.2 4.562 0.601 1.346 0.391 2.491 0.94 3.436 1.649 0.945 0.699 1.665 1.521 2.158 2.466 0.504 0.935 0.755 1.952 0.755 3.052v16.216h-7.952v-3.329h-0.185c-0.472 0.884-1.048 1.598-1.726 2.143-0.668 0.545-1.433 0.94-2.296 1.187-0.853 0.247-1.793 0.37-2.821 0.37zM425.708 26.574c0.647 0 1.253-0.134 1.818-0.401 0.575-0.267 1.043-0.652 1.403-1.156s0.539-1.115 0.539-1.834v-1.973c-0.226 0.093-0.468 0.18-0.724 0.262-0.247 0.082-0.514 0.159-0.802 0.231-0.277 0.072-0.575 0.139-0.894 0.2-0.308 0.062-0.632 0.118-0.971 0.17-0.658 0.103-1.197 0.272-1.618 0.509-0.411 0.226-0.719 0.509-0.924 0.848-0.196 0.329-0.293 0.699-0.293 1.11 0 0.658 0.231 1.161 0.693 1.511s1.053 0.524 1.772 0.524z"></path>
<path fill="#cbfff5" style="fill: var(--color7, #cbfff5)" d="M441.978 31.568v-23.676h8.261v4.501h0.247c0.431-1.665 1.115-2.883 2.049-3.653 0.945-0.771 2.050-1.156 3.314-1.156 0.37 0 0.734 0.031 1.094 0.093 0.37 0.051 0.724 0.128 1.064 0.231v7.26c-0.421-0.144-0.94-0.252-1.557-0.324s-1.145-0.108-1.588-0.108c-0.832 0-1.582 0.19-2.249 0.57-0.658 0.37-1.177 0.894-1.557 1.572-0.38 0.668-0.57 1.454-0.57 2.358v12.331h-8.507z"></path>
<path fill="#cbfff5" style="fill: var(--color7, #cbfff5)" d="M470.781 32c-2.527 0-4.705-0.483-6.534-1.449-1.819-0.976-3.221-2.374-4.207-4.193-0.976-1.829-1.464-4.018-1.464-6.567 0-2.446 0.493-4.583 1.479-6.412s2.379-3.252 4.177-4.27c1.798-1.017 3.919-1.526 6.364-1.526 1.788 0 3.406 0.277 4.855 0.832s2.687 1.362 3.714 2.42c1.028 1.048 1.818 2.322 2.373 3.823s0.832 3.191 0.832 5.071v1.973h-21.144v-4.686h13.315c-0.010-0.678-0.185-1.274-0.524-1.788-0.329-0.524-0.776-0.93-1.341-1.218-0.555-0.298-1.186-0.447-1.896-0.447-0.688 0-1.32 0.149-1.895 0.447-0.575 0.288-1.038 0.689-1.387 1.202-0.339 0.514-0.519 1.115-0.539 1.803v5.056c0 0.76 0.159 1.439 0.478 2.035s0.776 1.064 1.372 1.403c0.596 0.339 1.315 0.509 2.158 0.509 0.585 0 1.119-0.082 1.602-0.247 0.493-0.164 0.914-0.401 1.264-0.709 0.349-0.319 0.606-0.699 0.77-1.141h7.767c-0.267 1.644-0.899 3.073-1.896 4.285-0.996 1.202-2.316 2.137-3.96 2.805-1.634 0.658-3.545 0.986-5.733 0.986z"></path>
</symbol>
</defs>
</svg>
