<svg aria-hidden="true" style="position: absolute; width: 0; height: 0; overflow: hidden;" version="1.1" xmlns="http://www.w3.org/2000/svg" xmlns:xlink="http://www.w3.org/1999/xlink">
<defs>
<symbol id="icon-right" viewBox="0 0 39 32">
<path fill="#64d3c2" style="fill: var(--color1, #64d3c2)" d="M0 29.916v-8.559c0-2.462 0.462-5.021 1.385-7.678 0.951-2.685 2.238-5.217 3.86-7.594 1.65-2.406 3.497-4.434 5.538-6.084l7.049 4.573c-1.65 2.49-3.035 5.091-4.154 7.804-1.091 2.685-1.622 5.65-1.594 8.895v8.643h-12.084zM21.273 29.916v-8.559c0-2.462 0.462-5.021 1.385-7.678 0.951-2.685 2.238-5.217 3.86-7.594 1.65-2.406 3.497-4.434 5.538-6.084l7.049 4.573c-1.65 2.49-3.035 5.091-4.154 7.804-1.091 2.685-1.622 5.65-1.595 8.895v8.643h-12.084z"></path>
</symbol>
<symbol id="icon-left" viewBox="0 0 39 32">
<path fill="#64d3c2" style="fill: var(--color1, #64d3c2)" d="M39.106 29.916v-8.559c0-2.462-0.462-5.021-1.385-7.678-0.951-2.685-2.238-5.217-3.86-7.594-1.65-2.406-3.496-4.434-5.538-6.084l-7.049 4.573c1.65 2.49 3.035 5.091 4.154 7.804 1.091 2.685 1.622 5.65 1.594 8.895v8.643h12.084zM17.833 29.916v-8.559c0-2.462-0.462-5.021-1.385-7.678-0.951-2.685-2.238-5.217-3.86-7.594-1.65-2.406-3.497-4.434-5.538-6.084l-7.049 4.573c1.65 2.49 3.035 5.091 4.154 7.804 1.091 2.685 1.622 5.65 1.594 8.895v8.643h12.084z"></path>
</symbol>
</defs>
</svg>
