<svg aria-hidden="true" style="position: absolute; width: 0; height: 0; overflow: hidden;" version="1.1" xmlns="http://www.w3.org/2000/svg" xmlns:xlink="http://www.w3.org/1999/xlink">
<defs>
<symbol id="icon-cross" viewBox="0 0 32 32">
<path fill="#64d3c2" style="fill: var(--color1, #64d3c2)" d="M17.536 13.471v-2.56h-3.076v2.56c0 0.552-0.448 1-1 1h-2.553v3.068h2.553c0.552 0 1 0.448 1 1v2.56h3.076v-2.56c0-0.552 0.448-1 1-1h2.553v-3.068h-2.553c-0.552 0-1-0.448-1-1z"></path>
<path fill="#64d3c2" style="fill: var(--color1, #64d3c2)" d="M23.091 17.85c0 0.927-0.752 1.681-1.679 1.681h-1.875v1.88c0 0.925-0.752 1.68-1.679 1.68h-3.719c-0.925 0-1.679-0.755-1.679-1.68v-1.88h-1.875c-0.925 0-1.679-0.755-1.679-1.681v-3.72c0-0.919 0.753-1.667 1.679-1.667h1.875v-1.88c0-0.927 0.753-1.68 1.679-1.68h3.719c0.927 0 1.679 0.753 1.679 1.68v1.88h1.875c0.927 0 1.679 0.748 1.679 1.667v3.72zM21.624 3.33h-11.247c-4.212 0-7.043 2.964-7.043 7.375v10.585c0 4.411 2.831 7.373 7.043 7.373h11.245c4.215 0 7.045-2.963 7.045-7.373v-10.585c0-4.411-2.831-7.375-7.044-7.375z"></path>
</symbol>
<symbol id="icon-hand-heart" viewBox="0 0 27 32">
<path fill="#64d3c2" style="fill: var(--color1, #64d3c2)" d="M0 18.302c0-0.595 0.482-1.077 1.077-1.077h4.308c0.181 0 0.36 0.046 0.519 0.133l3.347 1.841h1.159c1.778 0 3.251 0.909 4.041 2.124l-4.759 2.304-3.967-1.322-0.681 2.043 4.308 1.436c0.221 0.074 0.46 0.074 0.681 0l6.547-3.204v-1.966l3.125-1.042c1.983-0.661 4.139 0.338 4.915 2.28l0.43 1.076c0.208 0.52-0.017 1.113-0.518 1.363l-12.923 6.461c-0.24 0.12-0.516 0.146-0.775 0.073l-10.050-2.843c-0.464-0.131-0.784-0.554-0.784-1.036v-8.644z"></path>
<path fill="#64d3c2" style="fill: var(--color1, #64d3c2)" d="M12.183 0.45c0.438 0.189 0.807 0.413 1.098 0.619 0.29-0.206 0.659-0.43 1.098-0.619 1.206-0.52 2.914-0.759 4.831 0.276 2.433 1.312 3.551 4.393 2.825 7.469-0.742 3.14-3.359 6.291-8.373 8.179l-0.381 0.143-0.381-0.143c-5.014-1.888-7.631-5.040-8.373-8.179-0.727-3.076 0.392-6.157 2.825-7.469 1.918-1.034 3.625-0.796 4.831-0.276z"></path>
</symbol>
</defs>
</svg>
