<svg width="18" height="18" viewBox="0 0 18 18" fill="none" xmlns="http://www.w3.org/2000/svg">
<path d="M3.38938 0.030473C3.86162 0.128077 4.2377 0.445359 4.47136 0.864552L5.21571 2.19993C5.48988 2.69176 5.72061 3.10566 5.87129 3.46547C6.03112 3.84715 6.12605 4.22354 6.08266 4.63967C6.03926 5.0558 5.86872 5.4045 5.63357 5.74499C5.4119 6.06597 5.10074 6.42337 4.73098 6.84806L3.63681 8.10488C3.44074 8.3301 3.3427 8.44271 3.33374 8.58346C3.32478 8.72421 3.40513 8.84443 3.56584 9.08486C4.93549 11.1341 6.78144 12.9807 8.83235 14.3515C9.07279 14.5122 9.19302 14.5926 9.33377 14.5836C9.47452 14.5747 9.58713 14.4766 9.81235 14.2805L11.0692 13.1863C11.4939 12.8166 11.8513 12.5054 12.1723 12.2837C12.5128 12.0486 12.8615 11.878 13.2776 11.8346C13.6938 11.7912 14.0701 11.8862 14.4518 12.046C14.8116 12.1967 15.2255 12.4274 15.7173 12.7015L17.0527 13.4459C17.4719 13.6796 17.7892 14.0557 17.8868 14.5279C17.9854 15.0051 17.84 15.4847 17.5187 15.8789C16.3529 17.3092 14.4852 18.2199 12.5258 17.8246C11.3215 17.5817 10.1331 17.1769 8.69588 16.3527C5.80808 14.6965 3.21885 12.1059 1.56463 9.22142C0.740362 7.78416 0.3356 6.59584 0.092647 5.39145C-0.3026 3.4321 0.608096 1.56437 2.0384 0.398611C2.43259 0.0773264 2.91222 -0.0681496 3.38938 0.030473Z" fill="#525B5A"/>
</svg>
