<svg aria-hidden="true" style="position: absolute; width: 0; height: 0; overflow: hidden;" version="1.1" xmlns="http://www.w3.org/2000/svg" xmlns:xlink="http://www.w3.org/1999/xlink">
<defs>
<symbol id="icon-Filed" viewBox="0 0 32 32">
<path fill="#5abeaf" style="fill: var(--color1, #5abeaf)" d="M21.203 13.552l-6.122 6.122c-0.195 0.195-0.448 0.292-0.703 0.292-0.256 0-0.509-0.097-0.704-0.292l-3.061-3.061c-0.388-0.388-0.388-1.018 0-1.407s1.017-0.388 1.405 0l2.36 2.358 5.418-5.419c0.388-0.388 1.018-0.388 1.407 0s0.388 1.018 0 1.407zM15.909 3.315c-6.944 0-12.594 5.65-12.594 12.594 0 6.945 5.65 12.594 12.594 12.594s12.594-5.649 12.594-12.594c0-6.944-5.65-12.594-12.594-12.594z"></path>
</symbol>
</defs>
</svg>
