<svg width="27" height="27" viewBox="0 0 27 27" fill="none" xmlns="http://www.w3.org/2000/svg">
<path d="M5.08408 0.0457095C5.79243 0.192115 6.35655 0.668039 6.70705 1.29683L7.82356 3.29989C8.23482 4.03764 8.58091 4.6585 8.80693 5.19821C9.04668 5.77073 9.18908 6.3353 9.12399 6.9595C9.05889 7.5837 8.80308 8.10675 8.45036 8.61749C8.11785 9.09896 7.6511 9.63505 7.09648 10.2721L5.45522 12.1573C5.16111 12.4951 5.01405 12.6641 5.00061 12.8752C4.98717 13.0863 5.1077 13.2666 5.34875 13.6273C7.40323 16.7011 10.1722 19.471 13.2485 21.5273C13.6092 21.7683 13.7895 21.8889 14.0006 21.8754C14.2118 21.862 14.3807 21.7149 14.7185 21.4208L16.6039 19.7795C17.2409 19.2248 17.777 18.7581 18.2585 18.4256C18.7692 18.0729 19.2922 17.817 19.9164 17.752C20.5406 17.6869 21.1052 17.8293 21.6777 18.069C22.2174 18.295 22.8382 18.6411 23.5759 19.0523L25.5791 20.1689C26.2079 20.5194 26.6838 21.0835 26.8302 21.7919C26.9782 22.5076 26.76 23.2271 26.278 23.8183C24.5294 25.9638 21.7278 27.3298 18.7888 26.737C16.9822 26.3725 15.1997 25.7654 13.0438 24.529C8.71213 22.0448 4.82828 18.1588 2.34694 13.8321C1.11054 11.6762 0.503399 9.89375 0.13897 8.08718C-0.4539 5.14815 0.912144 2.34655 3.0576 0.597917C3.64889 0.11599 4.36833 -0.102224 5.08408 0.0457095Z" fill="#DF7E7E"/>
</svg>
