<svg width="22" height="27" viewBox="0 0 22 27" fill="none" xmlns="http://www.w3.org/2000/svg">
<path d="M0 15.9375C0 15.4197 0.419733 15 0.9375 15H4.6875C4.84548 15 5.0009 15.0399 5.13933 15.1161L8.05332 16.7189H9.0625C10.6105 16.7189 11.893 17.5106 12.5806 18.568L8.4375 20.5741L4.98396 19.4229L4.39103 21.2017L8.14103 22.4517C8.33347 22.5158 8.54152 22.5158 8.73396 22.4517L14.4331 19.6622V17.9505L17.1539 17.0435C18.8806 16.468 20.7566 17.3381 21.4326 19.028L21.8071 19.9643C21.9882 20.417 21.792 20.933 21.3559 21.151L10.1059 26.776C9.89687 26.8805 9.65633 26.9032 9.43144 26.8396L0.682303 24.3645C0.278661 24.2503 0 23.8819 0 23.4624L0 15.9375Z" fill="#DF7E7E"/>
<path d="M10.6054 0.387564C10.9871 0.55218 11.3082 0.747081 11.561 0.926562C11.8138 0.747083 12.1349 0.552185 12.5166 0.387571C13.5667 -0.0653655 15.053 -0.272779 16.7223 0.627495C18.8404 1.76983 19.8139 4.45216 19.1814 7.12983C18.5359 9.86288 16.2576 12.6067 11.8926 14.2501L11.561 14.375L11.2294 14.2501C6.86444 12.6067 4.58612 9.86288 3.94052 7.12983C3.308 4.45217 4.28148 1.76983 6.39961 0.627488C8.0689 -0.272788 9.55527 -0.0653673 10.6054 0.387564Z" fill="#DF7E7E"/>
</svg>
