<svg width="30" height="30" viewBox="0 0 30 30" fill="none" xmlns="http://www.w3.org/2000/svg">
<path fill-rule="evenodd" clip-rule="evenodd" d="M6.66709 16.4537C6.43343 16.3683 6.21315 16.2756 6.01016 16.1748C5.69302 16.0175 5.32176 15.7938 5.00508 15.4688C4.68543 15.1407 4.28613 14.5613 4.28613 13.75C4.28613 12.9387 4.68543 12.3593 5.00508 12.0312C5.32176 11.7062 5.69302 11.4826 6.01016 11.3251C6.65349 11.0057 7.47038 10.7675 8.33676 10.5856C10.099 10.2155 12.454 10 15.0004 10C17.5468 10 19.9018 10.2155 21.6641 10.5856C22.5304 10.7675 23.3474 11.0057 23.9907 11.3251C24.3078 11.4826 24.6791 11.7062 24.9957 12.0312C25.3154 12.3593 25.7147 12.9387 25.7147 13.75C25.7147 14.5613 25.3154 15.1407 24.9957 15.4688C24.6791 15.7938 24.3078 16.0175 23.9907 16.1748C23.7877 16.2756 23.5674 16.3683 23.3337 16.4538V23.75C23.3337 24.5183 22.9193 25.1258 22.4348 25.5587C21.947 25.9947 21.2936 26.3451 20.564 26.6208C19.0974 27.1752 17.1303 27.5 15.0004 27.5C12.8705 27.5 10.9034 27.1752 9.43678 26.6208C8.70729 26.3451 8.05388 25.9947 7.56595 25.5587C7.08159 25.1258 6.66709 24.5183 6.66709 23.75V16.4537ZM22.5387 14.7552L22.5426 14.7539C23.4206 14.4637 23.929 14.1193 23.929 13.75C23.929 13.3807 23.4206 13.0363 22.5426 12.746L22.5387 12.7448C20.9544 12.2219 18.1703 11.875 15.0004 11.875C11.8305 11.875 9.04648 12.2219 7.4621 12.7448L7.45822 12.746C6.58029 13.0363 6.07185 13.3807 6.07185 13.75C6.07185 14.1193 6.58029 14.4637 7.45822 14.7539L7.4621 14.7552C9.04648 15.2781 11.8305 15.6249 15.0004 15.6249C18.1703 15.6249 20.9544 15.2781 22.5387 14.7552Z" fill="#DF7E7E"/>
<path d="M16.8482 2.36893C17.0675 1.90828 17.6937 1.90828 17.913 2.36893C18.5031 3.60818 18.707 3.82225 19.8872 4.44188C20.326 4.67221 20.326 5.32958 19.8872 5.55991C18.707 6.17954 18.5031 6.39361 17.913 7.63286C17.6937 8.09351 17.0675 8.09351 16.8482 7.63286C16.2581 6.39361 16.0542 6.17954 14.874 5.55991C14.4352 5.32958 14.4352 4.67221 14.874 4.44188C16.0542 3.82225 16.2581 3.60818 16.8482 2.36893Z" fill="#DF7E7E"/>
<path d="M10.896 4.86894C11.1154 4.40827 11.7414 4.40827 11.9608 4.86894C12.1683 5.30463 12.3296 5.47404 12.7446 5.69188C13.1833 5.92221 13.1833 6.57958 12.7446 6.80992C12.3296 7.02777 12.1683 7.19718 11.9608 7.63287C11.7414 8.09352 11.1154 8.09352 10.896 7.63287C10.6885 7.19718 10.5272 7.02777 10.1122 6.80992C9.67352 6.57958 9.67352 5.92221 10.1122 5.69188C10.5272 5.47404 10.6885 5.30463 10.896 4.86894Z" fill="#DF7E7E"/>
</svg>
