<svg aria-hidden="true" style="position: absolute; width: 0; height: 0; overflow: hidden;" version="1.1" xmlns="http://www.w3.org/2000/svg" xmlns:xlink="http://www.w3.org/1999/xlink">
<defs>
<symbol id="icon-Group-1" viewBox="0 0 32 32">
<path fill="#f88c8c" style="fill: var(--color1, #f88c8c)" d="M30.677 13.331c-1.489-1.489-3.837-1.542-5.389-0.227-1.551-1.315-3.899-1.264-5.389 0.227-1.366 1.366-1.521 3.504-0.376 5.198 0.675 0.999 2.249 2.334 4.805 4.074v1.725c0 1.548-1.259 2.807-2.807 2.807s-2.807-1.259-2.807-2.807v-0.468c0-1.806-1.469-3.275-3.275-3.275s-3.275 1.469-3.275 3.275v4.211c0 1.032-0.839 1.871-1.871 1.871s-1.871-0.839-1.871-1.871v-5.775c1.089-0.386 1.871-1.426 1.871-2.646v-1.482c2.741-1.113 4.678-3.804 4.678-6.939v-9.357h-3.743v-1.871h-1.871v5.614h1.871v-1.871h1.871v3.743c0 3.096-2.519 5.614-5.614 5.614s-5.614-2.518-5.614-5.614v-3.743h1.871v1.871h1.871v-5.614h-1.871v1.871h-3.743v9.357c0 3.135 1.938 5.826 4.678 6.939v1.482c0 1.248 0.806 2.272 1.871 2.648v5.774c0 2.064 1.679 3.743 3.743 3.743s3.743-1.679 3.743-3.743v-4.211c0-0.774 0.63-1.404 1.404-1.404s1.404 0.63 1.404 1.404v0.468c0 2.58 2.099 4.678 4.678 4.678s4.678-2.099 4.678-4.678v-1.696c1.954-1.344 4.015-2.863 4.854-4.104 1.145-1.694 0.99-3.831-0.376-5.198zM2.047 12.624c2.956 3.127 7.916 3.133 10.877 0-0.622 2.423-2.824 4.219-5.439 4.219s-4.817-1.796-5.439-4.219zM8.421 18.656v0.994c0 0.516-0.42 0.936-0.936 0.936s-0.936-0.419-0.936-0.936v-0.994c0.608 0.076 1.236 0.080 1.871 0zM29.503 17.481c-0.709 1.050-3.019 2.684-4.218 3.51-2.81-1.921-3.843-2.965-4.211-3.51-0.636-0.941-0.574-2.103 0.149-2.827 0.826-0.826 2.162-0.826 2.988 0l1.077 1.077 1.077-1.077c0.826-0.826 2.162-0.826 2.988 0 0.723 0.723 0.785 1.886 0.149 2.827z"></path>
</symbol>
<symbol id="icon-Group-2" viewBox="0 0 21 32">
<path fill="#f88c8c" style="fill: var(--color1, #f88c8c)" d="M15.846 0h-11.186c-2.57 0-4.661 2.091-4.661 4.661v16.779c0 2.57 2.091 4.661 4.661 4.661h2.796v5.717h5.593v-5.717h2.796c2.57 0 4.661-2.091 4.661-4.661v-16.779c0-2.57-2.091-4.661-4.661-4.661zM11.186 29.953h-1.864v-1.989h1.864v1.989zM9.321 26.1v-3.729h1.864v3.729h-1.864zM18.643 21.439c0 1.542-1.254 2.796-2.796 2.796h-2.796v-1.864h1.864v-1.864h-9.321v1.864h1.864v1.864h-2.796c-1.542 0-2.796-1.254-2.796-2.796v-16.779c0-1.542 1.254-2.796 2.796-2.796h11.186c1.542 0 2.796 1.254 2.796 2.796v16.779z"></path>
<path fill="#f88c8c" style="fill: var(--color1, #f88c8c)" d="M10.254 6.75c-0.674 0.977-1.143 1.624-1.738 2.651-0.948 1.635-1.058 2.334-1.058 2.718 0 1.542 1.255 2.796 2.796 2.796s2.796-1.254 2.796-2.796c0-0.384-0.11-1.083-1.058-2.718-0.596-1.027-1.064-1.674-1.738-2.651zM10.254 13.051c-0.514 0-0.932-0.418-0.932-0.931 0.008-0.285 0.395-1.097 0.932-2.002 0.537 0.904 0.924 1.716 0.932 2.001-0 0.514-0.418 0.931-0.932 0.931z"></path>
<path fill="#f88c8c" style="fill: var(--color1, #f88c8c)" d="M3.728 17.317c0 0.732 0.594 1.326 1.326 1.326h10.399c0.732 0 1.326-0.594 1.326-1.326v-12.263c0-0.732-0.594-1.326-1.326-1.326h-10.399c-0.732 0-1.326 0.594-1.326 1.326v12.263zM5.592 5.592h9.321v11.186h-9.321v-11.186z"></path>
</symbol>
<symbol id="icon-Group-3" viewBox="0 0 35 32">
<path fill="#f88c8c" style="fill: var(--color1, #f88c8c)" d="M34.319 13.731l-4.506-10.759c-0.5-1.193-1.66-1.964-2.956-1.964h-0.961c-1.67 0-3.029 1.356-3.029 3.023 0 1.453 1.033 2.67 2.404 2.958l1.184 3.227c-1.488-0.328-3.010-0.039-4.499 0.869h-4.020c0.917-0.149 1.763-0.575 2.439-1.24 0.873-0.859 1.354-2.006 1.354-3.231v-2.083c0-2.499-2.033-4.531-4.531-4.531h-5.039c-0.557 0-1.008 0.451-1.008 1.008s0.451 1.008 1.008 1.008h0.507v4.541c0 2.264 1.654 4.172 3.802 4.529h-4.028c-1.489-0.908-3.011-1.197-4.499-0.869l1.184-3.227c1.372-0.288 2.404-1.505 2.404-2.958 0-1.667-1.359-3.023-3.029-3.023h-0.961c-1.296 0-2.456 0.771-2.956 1.964l-4.506 10.759c-0.128 0.306-0.098 0.655 0.081 0.933 1.8 2.806 4.632 4.307 8.427 4.468l2.213 7.223v3.877c0 0.557 0.451 1.008 1.008 1.008h10.781c0.557 0 1.008-0.451 1.008-1.008v-3.877l2.213-7.223c3.795-0.161 6.628-1.662 8.427-4.468 0.179-0.279 0.209-0.628 0.081-0.933zM14.683 6.556v-4.541h2.516c1.387 0 2.516 1.129 2.516 2.516v2.083c0 0.68-0.267 1.317-0.752 1.794s-1.126 0.734-1.807 0.722c-1.363-0.023-2.473-1.177-2.473-2.574zM25.060 17.131c-0.443 0-0.834 0.289-0.963 0.712l-2.471 8.065c-0.081 0.264-0.030 0.257-0.044 3.315h-8.766c-0.015-3.165 0.033-3.062-0.044-3.315l-2.471-8.065c-0.124-0.406-0.483-0.712-1.020-0.712-3.248 0-5.587-1.025-7.131-3.128l4.294-10.253c0.185-0.442 0.616-0.727 1.097-0.727h0.961c0.559 0 1.014 0.452 1.014 1.008s-0.455 1.008-1.014 1.008c-0.008 0.002-0.78-0.070-1.048 0.66l-2.219 6.046c-0.337 0.918 0.709 1.733 1.516 1.178 1.614-1.108 3.153-1.105 4.843 0.010 0.165 0.109 0.358 0.167 0.555 0.167h10.101c0.197 0 0.39-0.058 0.555-0.167 1.69-1.115 3.229-1.119 4.843-0.010 0.362 0.248 0.842 0.234 1.189-0.035s0.479-0.731 0.328-1.143l-2.219-6.046c-0.269-0.733-1.038-0.657-1.048-0.66-0.559 0-1.014-0.452-1.014-1.008s0.455-1.008 1.014-1.008h0.961c0.481 0 0.912 0.286 1.097 0.727l4.294 10.253c-1.742 2.374-4.239 3.096-7.188 3.128z"></path>
<path fill="#f88c8c" style="fill: var(--color1, #f88c8c)" d="M19.547 21.095h-4.699c-0.557 0-1.008 0.451-1.008 1.008s0.451 1.008 1.008 1.008h4.699c0.557 0 1.008-0.451 1.008-1.008s-0.451-1.008-1.008-1.008z"></path>
<path fill="#f88c8c" style="fill: var(--color1, #f88c8c)" d="M18.536 25.125h-2.687c-0.557 0-1.008 0.451-1.008 1.008s0.451 1.008 1.008 1.008h2.687c0.557 0 1.008-0.451 1.008-1.008s-0.451-1.008-1.008-1.008z"></path>
</symbol>
</defs>
</svg>
