<svg width="30" height="30" viewBox="0 0 30 30" fill="none" xmlns="http://www.w3.org/2000/svg">
<path fill-rule="evenodd" clip-rule="evenodd" d="M22.5 7.5L13.75 7.5V5L22.5 5V7.5ZM17.2411 19.0089L11.6161 13.3839L13.3839 11.6161L19.0089 17.2411L17.2411 19.0089ZM5 22.5L5 13.75H7.5L7.5 22.5H5Z" fill="#64D3C2"/>
<path d="M1.5625 8.05556C1.5625 4.46954 4.46954 1.5625 8.05556 1.5625C11.6416 1.5625 14.5486 4.46954 14.5486 8.05556C14.5486 11.6416 11.6416 14.5486 8.05556 14.5486C4.46954 14.5486 1.5625 11.6416 1.5625 8.05556Z" fill="#64D3C2"/>
<path d="M2.8125 25C2.8125 23.1015 4.35152 21.5625 6.25 21.5625C8.14848 21.5625 9.6875 23.1015 9.6875 25C9.6875 26.8985 8.14848 28.4375 6.25 28.4375C4.35152 28.4375 2.8125 26.8985 2.8125 25Z" fill="#64D3C2"/>
<path d="M16.5625 20C16.5625 18.1015 18.1015 16.5625 20 16.5625C21.8985 16.5625 23.4375 18.1015 23.4375 20C23.4375 21.8985 21.8985 23.4375 20 23.4375C18.1015 23.4375 16.5625 21.8985 16.5625 20Z" fill="#64D3C2"/>
<path d="M21.5625 6.25C21.5625 4.35152 23.1015 2.8125 25 2.8125C26.8985 2.8125 28.4375 4.35152 28.4375 6.25C28.4375 8.14848 26.8985 9.6875 25 9.6875C23.1015 9.6875 21.5625 8.14848 21.5625 6.25Z" fill="#64D3C2"/>
</svg>
