<svg aria-hidden="true" style="position: absolute; width: 0; height: 0; overflow: hidden;" version="1.1" xmlns="http://www.w3.org/2000/svg" xmlns:xlink="http://www.w3.org/1999/xlink">
<defs>
<symbol id="icon-Square" viewBox="0 0 32 32">
<path fill="none" stroke="#cdcdcd" style="stroke: var(--color1, #cdcdcd)" stroke-linejoin="round" stroke-linecap="round" stroke-miterlimit="4" stroke-width="1.7143" d="M21.622 4h-11.246c-3.919 0-6.376 2.775-6.376 6.702v10.596c0 3.927 2.445 6.702 6.376 6.702h11.245c3.932 0 6.379-2.775 6.379-6.702v-10.596c0-3.927-2.447-6.702-6.378-6.702z"></path>
</symbol>
<symbol id="icon-fill" viewBox="0 0 32 32">
<path fill="#525b5a" style="fill: var(--color2, #525b5a)" d="M16.033 0h-0.178c-3.408-0-6.084-0-8.174 0.281-2.141 0.288-3.841 0.89-5.176 2.225s-1.937 3.034-2.225 5.176c-0.281 2.090-0.281 4.766-0.281 8.174v0.178c-0 3.408-0 6.084 0.281 8.174 0.288 2.141 0.89 3.841 2.225 5.176s3.034 1.937 5.176 2.225c2.090 0.281 4.766 0.281 8.174 0.281h0.178c3.408 0 6.084 0 8.174-0.281 2.141-0.288 3.841-0.89 5.176-2.225s1.937-3.034 2.225-5.176c0.281-2.090 0.281-4.766 0.281-8.174v-0.178c0-3.408 0-6.084-0.281-8.174-0.288-2.141-0.89-3.841-2.225-5.176s-3.034-1.937-5.176-2.225c-2.090-0.281-4.766-0.281-8.174-0.281v0zM23.218 10.13c0.633 0.581 0.676 1.565 0.096 2.198l-8.556 9.333c-0.287 0.313-0.689 0.495-1.113 0.504s-0.834-0.155-1.134-0.455l-3.889-3.889c-0.607-0.607-0.607-1.592 0-2.2s1.592-0.607 2.2 0l2.74 2.74 7.458-8.136c0.581-0.633 1.565-0.676 2.198-0.096z"></path>
</symbol>
<symbol id="icon-Check" viewBox="0 0 32 32">
<path fill="#5abeaf" style="fill: var(--color3, #5abeaf)" d="M21.203 13.552l-6.122 6.122c-0.195 0.195-0.448 0.292-0.703 0.292-0.256 0-0.509-0.097-0.704-0.292l-3.061-3.061c-0.388-0.388-0.388-1.018 0-1.407s1.017-0.388 1.405 0l2.36 2.358 5.418-5.419c0.388-0.388 1.018-0.388 1.407 0s0.388 1.018 0 1.407zM15.909 3.315c-6.944 0-12.594 5.65-12.594 12.594 0 6.945 5.65 12.594 12.594 12.594s12.594-5.649 12.594-12.594c0-6.944-5.65-12.594-12.594-12.594z"></path>
</symbol>
</defs>
</svg>
