<svg width="24" height="24" viewBox="0 0 24 24" fill="none" xmlns="http://www.w3.org/2000/svg">
<path fill-rule="evenodd" clip-rule="evenodd" d="M15.3097 12.613H8.68875C8.27475 12.613 7.93875 12.277 7.93875 11.863C7.93875 11.449 8.27475 11.113 8.68875 11.113H15.3097C15.7237 11.113 16.0597 11.449 16.0597 11.863C16.0597 12.277 15.7237 12.613 15.3097 12.613ZM15.3097 16.669H8.68875C8.27475 16.669 7.93875 16.333 7.93875 15.919C7.93875 15.505 8.27475 15.169 8.68875 15.169H15.3097C15.7237 15.169 16.0597 15.505 16.0597 15.919C16.0597 16.333 15.7237 16.669 15.3097 16.669ZM8.68975 7.066H11.2157C11.6297 7.066 11.9657 7.402 11.9657 7.816C11.9657 8.23 11.6297 8.566 11.2157 8.566H8.68975C8.27575 8.566 7.93975 8.23 7.93975 7.816C7.93975 7.402 8.27575 7.066 8.68975 7.066ZM16.0367 2.5H7.96275C5.41575 2.5 3.34375 4.572 3.34375 7.12V16.88C3.34375 19.427 5.41575 21.5 7.96275 21.5H16.0367C18.5837 21.5 20.6567 19.427 20.6567 16.88V7.12C20.6567 4.572 18.5837 2.5 16.0367 2.5Z" fill="white"/>
</svg>
