<svg width="21" height="26" viewBox="0 0 21 26" fill="none" xmlns="http://www.w3.org/2000/svg">
<path d="M3.71842 1.45703V4.86953C3.71842 8.63888 6.75449 11.6945 10.4997 11.6945C14.2449 11.6945 17.2809 8.63888 17.2809 4.86953V1.45703H19.5413V4.86953C19.5413 8.29571 17.66 11.2797 14.8804 12.832C17.66 14.3844 19.5413 17.3684 19.5413 20.7945V24.207L1.45801 24.207V20.7945C1.45801 17.3684 3.33932 14.3844 6.11898 12.832C3.33932 11.2797 1.45801 8.29571 1.45801 4.86953V1.45703H3.71842Z" fill="white"/>
<path fill-rule="evenodd" clip-rule="evenodd" d="M0 0H21V2.33333H0V0ZM0 23.3333H21V25.6667H0V23.3333Z" fill="white"/>
</svg>
