<svg width="28" height="28" viewBox="0 0 28 28" fill="none" xmlns="http://www.w3.org/2000/svg">
<path fill-rule="evenodd" clip-rule="evenodd" d="M4.2002 5.54166C4.2002 4.41409 5.11428 3.5 6.24186 3.5H23.1586C24.2861 3.5 25.2002 4.41409 25.2002 5.54166V20.125C25.2002 21.2526 24.2861 22.1666 23.1586 22.1666H18.6388C18.5708 22.1666 18.505 22.1904 18.4528 22.2337L16.0047 24.2619C15.2458 24.8906 14.1459 24.8875 13.3906 24.2543L10.9813 22.2348C10.9288 22.1908 10.8625 22.1666 10.794 22.1666H6.24186C5.11428 22.1666 4.2002 21.2526 4.2002 20.125V5.54166ZM14.7002 8.16666C15.0684 8.16666 15.3669 8.46514 15.3669 8.83333C15.3669 10.1408 15.6565 10.9301 16.1299 11.4036C16.6034 11.8771 17.3927 12.1667 18.7001 12.1667C19.0683 12.1667 19.3668 12.4651 19.3668 12.8333C19.3668 13.2015 19.0683 13.5 18.7001 13.5C17.3927 13.5 16.6034 13.7896 16.1299 14.2631C15.6565 14.7365 15.3669 15.5259 15.3669 16.8333C15.3669 17.2015 15.0684 17.5 14.7002 17.5C14.332 17.5 14.0335 17.2015 14.0335 16.8333C14.0335 15.5259 13.7439 14.7365 13.2705 14.2631C12.797 13.7896 12.0077 13.5 10.7002 13.5C10.332 13.5 10.0335 13.2015 10.0335 12.8333C10.0335 12.4651 10.332 12.1667 10.7002 12.1667C12.0077 12.1667 12.797 11.8771 13.2705 11.4036C13.7439 10.9301 14.0335 10.1408 14.0335 8.83333C14.0335 8.46514 14.332 8.16666 14.7002 8.16666Z" fill="white"/>
</svg>
