<svg width="28" height="28" viewBox="0 0 28 28" fill="none" xmlns="http://www.w3.org/2000/svg">
<path fill-rule="evenodd" clip-rule="evenodd" d="M14.5329 19.2263V19.2935C14.5553 19.7527 14.1969 20.1447 13.7265 20.1559H13.7041C13.2449 20.1559 12.8753 19.8087 12.8641 19.3495C12.8417 18.8903 13.2001 18.4759 13.6705 18.4535C14.1185 18.4311 14.5217 18.7671 14.5329 19.2263ZM13.7265 16.6503H13.7041C13.2449 16.6503 12.8753 16.3031 12.8641 15.8439C12.8417 15.3847 13.2001 14.9703 13.6705 14.9479C14.1185 14.9255 14.5217 15.2615 14.5329 15.7207V15.7767C14.5553 16.2471 14.1969 16.6391 13.7265 16.6503ZM9.57132 19.2263V19.2935C9.59372 19.7527 9.23532 20.1447 8.76492 20.1559H8.73132C8.28332 20.1559 7.91372 19.8087 7.89132 19.3495C7.88012 18.8903 8.23852 18.4759 8.69772 18.4535C9.14572 18.4311 9.56012 18.7671 9.57132 19.2263ZM8.76492 16.6503H8.73132C8.28332 16.6503 7.91372 16.3031 7.89132 15.8439C7.88012 15.3847 8.23852 14.9703 8.69772 14.9479C9.14572 14.9255 9.54892 15.2615 9.57132 15.7207V15.7767C9.59372 16.2471 9.23532 16.6391 8.76492 16.6503ZM9.52652 10.7591C9.06732 10.7591 8.68652 10.3895 8.68652 9.91906C8.68652 9.45986 9.06732 9.07906 9.52652 9.07906H10.4337V8.17186C10.4337 7.71266 10.8033 7.33186 11.2737 7.33186C11.7329 7.33186 12.1137 7.71266 12.1137 8.17186V9.07906H13.0097C13.4689 9.07906 13.8497 9.45986 13.8497 9.91906C13.8497 10.3895 13.4689 10.7591 13.0097 10.7591H12.1137V11.6551C12.1137 12.1255 11.7329 12.4951 11.2737 12.4951C10.8033 12.4951 10.4337 12.1255 10.4337 11.6551V10.7591H9.52652ZM24.3329 21.8359H24.2321C24.0465 21.8359 23.8961 21.6855 23.8961 21.4999V10.6023C23.8961 9.43746 22.9553 8.48546 21.7905 8.48546H20.4689C20.2833 8.48546 20.1329 8.63589 20.1329 8.82146V21.4999C20.1329 21.6855 19.9825 21.8359 19.7969 21.8359H19.0129C18.8273 21.8359 18.6769 21.6855 18.6769 21.4999V6.65986C18.6769 5.21506 17.5009 4.03906 16.0449 4.03906H6.49132C5.04652 4.03906 3.85932 5.21506 3.85932 6.65986V21.5783C3.85932 21.7205 3.74398 21.8359 3.60172 21.8359C3.41132 21.8359 3.23212 21.9031 3.08652 22.0151C2.88492 22.1719 2.76172 22.4071 2.76172 22.6759C2.76172 23.0343 2.98572 23.3367 3.28812 23.4487C3.38892 23.4935 3.48972 23.5159 3.60172 23.5159H24.3329C24.7921 23.5159 25.1729 23.1463 25.1729 22.6759C25.1729 22.2167 24.7921 21.8359 24.3329 21.8359Z" fill="white"/>
</svg>
